<?xml version="1.0" encoding="utf-8"?>
<!-- Generator: Adobe Illustrator 15.1.0, SVG Export Plug-In . SVG Version: 6.00 Build 0)  -->
<!DOCTYPE svg PUBLIC "-//W3C//DTD SVG 1.1//EN" "http://www.w3.org/Graphics/SVG/1.1/DTD/svg11.dtd">
<svg version="1.1" id="Layer_1" xmlns="http://www.w3.org/2000/svg" xmlns:xlink="http://www.w3.org/1999/xlink" x="0px" y="0px"
	 width="1207.41px" height="104.99px" style="margin:100px;background-color: #000;" viewBox="0 0 1207.41 104.99" enable-background="new 0 0 1207.41 104.99"
	 xml:space="preserve">
<g>
	<polygon fill="#FFFFFF" points="596.458,22.213 603.777,16.873 611.096,22.213 608.277,13.604 615.619,8.286 606.562,8.312 
		603.776,-0.313 600.994,8.312 591.929,8.286 599.274,13.604 	"/>
	<polygon fill="#FFFFFF" points="652.191,16.873 659.508,22.213 656.691,13.604 664.035,8.286 654.973,8.312 652.191,-0.313 
		649.408,8.312 640.346,8.286 647.682,13.604 644.871,22.213 	"/>
	<polygon fill="#FFFFFF" points="700.596,16.873 707.918,22.213 705.102,13.604 712.443,8.286 703.379,8.312 700.592,-0.313 
		697.813,8.312 688.754,8.286 696.1,13.604 693.279,22.213 	"/>
	<polygon fill="#FFFFFF" points="499.636,22.213 506.958,16.873 514.269,22.213 511.457,13.604 518.798,8.286 509.737,8.312 
		506.953,-0.313 504.171,8.312 495.113,8.286 502.451,13.604 	"/>
	<polygon fill="#FFFFFF" points="558.15,8.306 555.366,-0.316 552.582,8.306 543.523,8.286 550.858,13.604 548.044,22.213 
		555.366,16.873 562.687,22.213 559.875,13.604 567.208,8.286 	"/>
	<rect x="745.256" y="10.141" fill="#FFFFFF" width="461.754" height="1.623"/>
	<rect x="0.541" y="10.141" fill="#FFFFFF" width="457.47" height="1.623"/>
	<path fill="#FFFFFF" d="M667.723,76.52v-3.264v-2.459v-0.625v-0.026V69.52v-2.459v-3.262V46.475v-1.183
		c0.225-1.25,0.787-2.522,1.568-3.614c0.426-0.514,2.246-2.549,4.967-3.549c0.244-0.091,0.523-0.205,0.746-0.323
		c1.76-0.759,0.494-0.72,0.494-0.72h-1.26h-0.008h-0.656h-5.627h-0.225h-0.105c-0.76,0-1.516,0-2.275,0c-1.031,0-2.068,0-3.102,0
		c-0.025,0-0.055,0-0.078,0c-0.258,0-0.514,0-0.771,0c-0.26,0-0.516,0-0.775,0c-0.025,0-0.049,0-0.074,0c-1.037,0-2.07,0-3.105,0
		c-0.756,0-1.516,0-2.271,0h-0.111h-0.217h-5.633h-0.652h-0.004h-1.266c0,0-1.266-0.039,0.498,0.72
		c0.217,0.118,0.496,0.232,0.742,0.323c2.723,1,4.542,3.035,4.969,3.549c0.777,1.092,1.342,2.364,1.563,3.614v1.183v17.324v3.262
		v2.459v0.626v0.026v0.625v2.459v3.264v17.321v1.181c-0.221,1.25-0.785,2.524-1.563,3.615c-0.427,0.514-2.246,2.553-4.969,3.551
		c-0.246,0.088-0.525,0.203-0.742,0.324c-1.764,0.759-0.498,0.717-0.498,0.717h1.262l0.008,0.002h0.652h5.633h0.217h0.111
		c0.756,0,1.516,0,2.271,0c1.035,0,2.068,0,3.105,0c0.025,0,0.049,0,0.074,0c0.26,0,0.516,0,0.775,0c0.258,0,0.514,0,0.771,0
		c0.023,0,0.053,0,0.078,0c1.033,0,2.07,0,3.102,0c0.76,0,1.516,0,2.275,0h0.105h0.225h5.627h0.656l0.008-0.002h1.26
		c0,0,1.266,0.042-0.494-0.717c-0.223-0.121-0.502-0.236-0.746-0.324c-2.721-0.998-4.541-3.037-4.967-3.551
		c-0.781-1.091-1.344-2.365-1.568-3.615v-1.181V76.52z"/>
	<path fill="#FFFFFF" d="M94.053,35.696c-7.788,0-14.705,3.5-20.558,10.405c-5.809,6.852-8.756,15.235-8.756,24.909
		c0,8.077,2.803,15.77,8.333,22.854c5.579,7.162,12.49,10.791,20.536,10.791c7.615,0,14.41-3.516,20.206-10.455
		c5.746-6.885,8.657-14.993,8.657-24.096c0-8.846-2.906-16.863-8.633-23.829C108.061,39.256,101.398,35.696,94.053,35.696z
		 M106.617,89.002c-0.81,4.402-2.529,7.373-5.103,8.83c-2.705,1.522-5.424,2.295-8.091,2.295c-4.377,0-7.48-1.184-9.472-3.619
		c-2.054-2.502-3.354-5.724-3.862-9.574c-0.527-3.999-0.787-9.453-0.787-16.209c0-9.754,0.465-16.666,1.379-20.536
		c0.865-3.673,2.494-6.269,4.839-7.708c2.433-1.496,5.212-2.257,8.265-2.257c2.945,0,5.561,0.713,7.771,2.11
		c2.166,1.363,3.771,3.644,4.777,6.789c1.055,3.289,1.582,9.407,1.582,18.176C107.916,77.027,107.48,84.328,106.617,89.002z"/>
	<path fill="#FFFFFF" d="M47.468,83.469L47.394,83.6l-0.167,0.313c-1.58,2.968-3.973,7.459-5.381,9.141
		c-0.02,0.021-0.05,0.051-0.086,0.081c-2.309,3.213-5.605,4.911-9.537,4.911c-9.398,0-15.238-11.535-15.238-30.097
		c0-20.122,4.668-30.76,13.494-30.76c5.528,0,9.145,2.916,11.391,9.182c0,0,3.486,8.873,3.816,9.77
		c0.035,0.104,0.083,0.217,0.127,0.326c0.064,0.146,0.125,0.294,0.195,0.422c0.761,1.76,0.719,0.493,0.719,0.493v-1.26
		c0-0.003,0-0.007,0-0.009v-0.139v-0.518V49.83v-0.329V35.625c0-1.271-0.203-1.438-0.225-1.45h-0.004c-0.283,0-0.75,0.511-1.2,1.006
		c-0.918,1.002-1.747,1.833-2.646,1.833c-1.229-0.111-2.529-0.461-4.275-1.133c-2.304-0.887-5.162-1.997-9.162-1.997
		c-17.063,0-28.977,14.36-28.977,34.917c0,20.806,11,34.248,28.027,34.248c11.008,0,18.039-6.693,19.287-18.363
		c0.002-0.026,0.008-0.06,0.013-0.094l0.026-0.235l0.012-0.553C47.572,83.441,47.513,83.413,47.468,83.469z"/>
	<path fill="#FFFFFF" d="M202.288,37.607h-1.259h-0.01h-0.652h-5.629h-0.328v0.009c-1.445,0-2.891,0-4.336,0v-0.009h-0.326h-5.631
		h-0.654h-0.01h-1.26c0,0-1.266-0.042,0.496,0.718c0.219,0.121,0.497,0.235,0.744,0.323c2.726,0.998,4.544,3.037,4.971,3.551
		c1.016,1.424,1.67,3.162,1.67,4.752v0.027c0,0.014,0.004,0.023,0.004,0.035v25.645c0,2.488-1.068,2.864-1.707,2.864
		c-0.764,0-1.481-0.571-2.212-1.744l-20.565-33.007c-1.066-1.708-3.669-3.155-5.686-3.155c-0.604,0-1.211,0-1.818,0
		c-1.471,0-2.936,0-4.41,0c-1.676,0-3.355,0-5.029,0v-0.021h-0.332h-5.629h-0.652h-0.01h-1.26c0,0-1.266-0.041,0.494,0.721
		c0.221,0.117,0.5,0.234,0.746,0.322c2.725,0.998,4.541,3.035,4.969,3.55c1.016,1.426,1.674,3.163,1.674,4.753v0.065v2.494V93.98
		v0.26c0,1.591-0.658,3.328-1.674,4.754c-0.428,0.514-2.244,2.551-4.969,3.551c-0.246,0.088-0.525,0.203-0.746,0.323
		c-1.76,0.759-0.494,0.718-0.494,0.718h1.26h0.004h0.658h5.629h0.332h4.33h0.043h0.285h5.631h0.654h0.007h1.261
		c0,0,1.27,0.041-0.492-0.718c-0.221-0.12-0.5-0.235-0.748-0.323c-2.723-1-4.537-3.037-4.971-3.551
		c-0.871-1.227-1.473-2.682-1.627-4.079v-0.697v-4.703V51.609c0-2.49,1.072-2.861,1.713-2.861c0.756,0,1.48,0.568,2.212,1.736
		l34.649,51.107c0,0.002,0,0.002,0,0.004c0.009,0.01,0.012,0.018,0.016,0.023l0.563,0.857v-0.003c0,0,0.002,0.011,0.003,0.011
		l0.034,0.049c0.031,0.049,0.086,0.119,0.158,0.193c1.652,2.277,2.08,1.926,2.08,1.926v-4.854v-0.729V51.052v-4.056v-0.725
		c0.157-1.396,0.754-2.85,1.63-4.072c0.43-0.514,2.244-2.553,4.966-3.551c0.248-0.088,0.526-0.202,0.748-0.323
		C203.556,37.565,202.288,37.607,202.288,37.607z"/>
	<path fill="#FFFFFF" d="M252.443,63.234c-2.741-1.387-6.748-2.57-11.914-3.519c-6.077-1.123-8.795-2.651-10.002-3.735
		c-1.727-1.541-2.533-3.277-2.533-5.462c0-2.341,1.07-4.671,3.179-6.929c2.115-2.262,5.046-3.366,8.944-3.366
		c1.787,0,3.096,0.278,3.962,0.56c0,0,3.153,0.572,8.343,6.633l0.003-0.006c0,0,0.062,0.076,0.173,0.215
		c0.725,0.859,1.49,1.826,2.295,2.912c1.164,1.503,2.486,3.244,3.34,4.497c0.001,0.001,0.001,0.003,0.002,0.005
		c0.046,0.068,0.084,0.119,0.089,0.133c0.81,1.332,0.721-1.49,0.721-1.49v-0.269c0-0.003,0-2.983,0-2.984V37.492v-0.65
		c0-0.005,0-0.009,0-0.014v-1.257c0,0,0.043-1.269-0.721,0.493c-1.032,1.479-1.808,1.662-2.18,1.859
		c-0.728,0.379-2.149,0.623-3.622,0.623c-1.078,0-2.624-0.132-3.896-0.76c-0.764-0.36-4.674-2.091-8.508-2.091
		c-5.799,0-10.47,2.038-13.887,6.067c-3.363,3.973-5.068,8.555-5.068,13.616c0,3.685,0.988,7.087,2.938,10.128
		c1.953,3.039,4.352,5.206,7.103,6.438c2.665,1.196,6.497,2.246,11.384,3.125c4.596,0.836,7.929,2.333,9.91,4.451
		c1.986,2.127,2.951,4.672,2.951,7.789c0,3.759-1.359,6.66-4.289,9.134c-2.94,2.48-6.071,3.683-9.566,3.683
		c-0.124,0-0.232-0.014-0.353-0.018c-6.376-0.569-11.827-5.903-14.606-9.162c-0.527-0.658-1.076-1.348-1.646-2.123
		c-1.166-1.504-2.486-3.242-3.338-4.497c0-0.002,0-0.002-0.002-0.005c-0.051-0.067-0.086-0.117-0.094-0.133
		c-0.809-1.332-0.72,1.492-0.72,1.492v0.267c0,0.001,0,2.983,0,2.987v12.934v0.654c0,0.004,0,0.006,0,0.007v1.259
		c0,0-0.038,1.268,0.72-0.492c1.033-1.479,1.806-1.664,2.178-1.857c0.732-0.381,2.152-0.625,3.624-0.625
		c1.077,0,2.626,0.133,3.896,0.758c0.174,0.082,0.506,0.233,0.959,0.418c1.236,0.617,5.619,2.666,9.295,2.666
		c5.929,0,10.975-2.211,14.987-6.578c3.991-4.345,6.015-9.842,6.015-16.341c0-4.237-0.971-8.052-2.89-11.343
		C257.701,67.089,255.281,64.678,252.443,63.234z"/>
	<path fill="#FFFFFF" d="M628.752,40.243c-0.014-0.214-0.049-0.422-0.106-0.624c-0.134-0.635-0.284-0.736-0.284-0.736l-0.002,0.021
		c-0.566-1.023-1.645-1.729-2.895-1.729h-24.207h-1.355h-24.202c-1.252,0-2.332,0.705-2.894,1.729l-0.005-0.021
		c0,0-0.15,0.102-0.29,0.736c-0.054,0.202-0.087,0.41-0.104,0.624c-0.049,0.376-0.087,0.855-0.109,1.464h-0.02v0.584v10.037v1.166
		c0,0.004,0.001,0.012,0.001,0.016v2.244c0,0-0.057,1.82,0.922-0.117c0.108-0.211,0.226-0.453,0.357-0.764
		c0.214-0.394,0.418-0.891,0.579-1.33c1.777-4.855,5.406-8.094,6.328-8.857c1.304-0.928,2.756-1.684,4.24-2.205
		c1.408-0.489,2.851-0.773,4.23-0.773h0.193c2.831,0,5.138,2.303,5.138,5.139v20.166h-0.039v2.459v0.651v6.347v17.322v1.185
		c-0.223,1.25-0.788,2.521-1.565,3.612c-0.428,0.514-2.242,2.553-4.965,3.551c-0.249,0.089-0.525,0.205-0.749,0.324
		c-1.759,0.76-0.493,0.718-0.493,0.718h1.26l0.01,0.001h0.652h5.63h0.22h0.108c0.761,0,1.516,0,2.278,0c1.027,0,2.063,0,3.098,0
		c0.025,0,0.055,0,0.08,0c0.256,0,0.516,0,0.773,0c0.254,0,0.514,0,0.774,0c0.021,0,0.05,0,0.075,0c1.031,0,2.066,0,3.101,0
		c0.759,0,1.517,0,2.275,0h0.107h0.223h5.629h0.654l0.008-0.001h1.258c0,0,1.271,0.042-0.49-0.718
		c-0.223-0.119-0.502-0.235-0.746-0.324c-2.727-0.998-4.543-3.037-4.971-3.551c-0.776-1.092-1.34-2.362-1.564-3.612v-1.185V76.469
		v-6.347v-0.651v-2.459l0,0V46.846c0-2.836,2.301-5.139,5.137-5.139h0.191c1.381,0,2.822,0.284,4.23,0.773
		c1.484,0.521,2.938,1.277,4.24,2.205c0.922,0.764,4.551,4.002,6.324,8.857c0.165,0.439,0.371,0.937,0.581,1.33
		c0.136,0.311,0.249,0.553,0.358,0.764c0.982,1.938,0.924,0.117,0.924,0.117V53.51c0-0.004,0.002-0.012,0.002-0.016v-1.166V42.291
		v-0.584h-0.02C628.844,41.099,628.801,40.619,628.752,40.243z"/>
	<path fill="#FFFFFF" d="M827.533,37.176c-0.039,0-0.064,0.008-0.107,0.008c-0.049-0.003-0.102-0.008-0.146-0.008
		c-0.033,0-0.049,0-0.049,0c-0.574,0-1.145,0-1.715,0c-1.029,0-2.061,0-3.094,0c-1.314,0-2.639,0-3.959,0c-1.537,0-3.074,0-4.611,0
		c-1.686,0-3.369,0-5.055,0c-1.764,0-3.525,0-5.291,0c-1.77,0-3.537,0-5.309,0c-1.711,0-3.416,0-5.125,0c-1.574,0-3.152,0-4.725,0
		c-0.76,0-1.518,0-2.277,0h-0.105h-0.219h-5.631h-0.652l-0.008,0.002h-1.262c0,0-1.266-0.042,0.493,0.719
		c0.222,0.119,0.5,0.232,0.747,0.322c2.723,0.998,4.537,3.037,4.967,3.553c0.779,1.088,1.342,2.361,1.564,3.611v1.184v7.361v0.697
		v8.568v6.348v0.65v6.348V93.86v1.184c-0.223,1.251-0.785,2.523-1.564,3.614c-0.43,0.514-2.244,2.552-4.967,3.548
		c-0.247,0.093-0.525,0.207-0.747,0.327c-1.759,0.76-0.493,0.717-0.493,0.717h1.26l0.01,0.003h0.652h5.631h0.219h0.105
		c0.76,0,1.518,0,2.277,0c1.572,0,3.15,0,4.725,0c1.709,0,3.414,0,5.125,0c1.771,0,3.539,0,5.309,0c1.766,0,3.527,0,5.291,0
		c1.686,0,3.369,0,5.055,0c1.537,0,3.074,0,4.611,0c1.32,0,2.645,0,3.959,0c1.033,0,2.064,0,3.094,0c0.57,0,1.141,0,1.711,0
		c0,0,0.02,0,0.053,0c0.045,0,0.098-0.007,0.146-0.009c0.043,0,0.068,0.009,0.107,0.009c4.963,0.005,4.678-2.644,4.678-2.644
		l-0.051-16.396c0.01-0.438,0.031-0.874,0.035-1.314c0-0.111,0.01-0.216-0.025-0.324c-0.156-0.467-0.396-0.116-0.539,0.141
		c-0.404,0.76-0.801,1.529-1.207,2.292c-0.578,1.091-1.154,2.18-1.73,3.271c-0.688,1.101-1.443,2.331-2.096,3.4
		c0,0.004,0,0.007,0,0.01c-0.016,0.014-0.021,0.025-0.031,0.042c-0.049,0.084-0.098,0.162-0.15,0.242
		c-3.898,5.824-8.449,6.655-10.158,6.747h-10.014c-0.07,0-0.119,0-0.152,0h-0.5h-1.811c-2.834,0-5.136-2.303-5.136-5.137V77.565
		c0-2.978,1.106-5.138,2.625-5.138c0.274,0,0.64,0.005,1.06,0.018h3.881c1.943,0,3.564,1.457,3.564,1.457l0.012,0.003
		c0.043,0.032,0.07,0.063,0.115,0.097c0.752,0.621,3.707,3.26,5.156,7.216c0.133,0.356,0.294,0.761,0.471,1.081
		c1.104,2.558,1.043,0.718,1.043,0.718v-1.829c0-0.004,0-0.01,0-0.014v-0.949v-7.779h0.018v-2.254v-0.65v-2.252h-0.018v-7.781
		v-0.952c0-0.003,0-0.007,0-0.012v-1.829c0,0,0.061-1.838-1.043,0.719c-0.177,0.32-0.338,0.725-0.471,1.084
		c-1.449,3.953-4.404,6.593-5.156,7.212c-0.045,0.032-0.072,0.067-0.115,0.098l-0.012,0.003c0,0-1.621,1.459-3.564,1.459h-3.881
		c-0.42,0.01-0.785,0.016-1.06,0.016c-1.519,0-2.625-2.158-2.625-5.139v-7.541v-0.697v-7.082c0-2.836,2.302-5.139,5.136-5.139h1.811
		h0.5c0.033,0,0.082,0,0.152,0h10.014c1.709,0.096,6.26,0.925,10.158,6.748c0.053,0.081,0.102,0.158,0.15,0.243
		c0.01,0.017,0.016,0.028,0.031,0.043c0,0.003,0,0.005,0,0.009c0.652,1.07,1.408,2.301,2.096,3.4
		c0.576,1.092,1.152,2.181,1.73,3.271c0.406,0.761,0.803,1.529,1.207,2.291c0.143,0.254,0.383,0.607,0.539,0.142
		c0.035-0.11,0.025-0.216,0.025-0.325c-0.004-0.439-0.025-0.879-0.035-1.316l0.051-16.395
		C832.211,39.818,832.496,37.168,827.533,37.176z"/>
	<path fill="#FFFFFF" d="M1130.709,37.176c-0.037,0-0.068,0.008-0.106,0.008c-0.052-0.003-0.103-0.008-0.151-0.008
		c-0.031,0-0.047,0-0.047,0c-0.574,0-1.145,0-1.711,0c-1.035,0-2.063,0-3.096,0c-1.318,0-2.639,0-3.961,0c-1.534,0-3.075,0-4.609,0
		c-1.686,0-3.371,0-5.057,0c-1.762,0-3.529,0-5.289,0c-1.77,0-3.539,0-5.311,0c-1.711,0-3.418,0-5.125,0c-1.574,0-3.152,0-4.726,0
		c-0.757,0-1.517,0-2.272,0h-0.111h-0.219h-5.631h-0.654l-0.008,0.002h-1.26c0,0-1.266-0.042,0.494,0.719
		c0.223,0.119,0.502,0.232,0.745,0.322c2.726,0.998,4.544,3.037,4.972,3.553c0.776,1.088,1.338,2.361,1.561,3.611v1.184v7.361v0.697
		v8.568v6.348v0.65v6.348V93.86v1.184c-0.223,1.251-0.784,2.523-1.561,3.614c-0.428,0.514-2.246,2.552-4.972,3.548
		c-0.243,0.093-0.522,0.207-0.745,0.327c-1.76,0.76-0.494,0.717-0.494,0.717h1.26l0.008,0.003h0.654h5.631h0.219h0.111
		c0.756,0,1.516,0,2.272,0c1.573,0,3.151,0,4.726,0c1.707,0,3.414,0,5.125,0c1.771,0,3.541,0,5.311,0c1.76,0,3.527,0,5.289,0
		c1.686,0,3.371,0,5.057,0c1.534,0,3.075,0,4.609,0c1.322,0,2.643,0,3.961,0c1.033,0,2.061,0,3.096,0c0.566,0,1.137,0,1.711,0
		c0,0,0.016,0,0.047,0c0.049,0,0.1-0.007,0.151-0.009c0.038,0,0.069,0.009,0.106,0.009c4.957,0.005,4.678-2.644,4.678-2.644
		l-0.057-16.396c0.014-0.438,0.035-0.874,0.039-1.314c0.004-0.111,0.016-0.216-0.021-0.324c-0.158-0.467-0.4-0.116-0.541,0.141
		c-0.406,0.76-0.803,1.529-1.209,2.292c-0.577,1.091-1.154,2.18-1.73,3.271c-0.688,1.101-1.439,2.331-2.092,3.4
		c-0.008,0.004-0.008,0.007-0.008,0.01c-0.006,0.014-0.018,0.025-0.029,0.042c-0.051,0.084-0.096,0.162-0.145,0.242
		c-3.902,5.824-8.451,6.655-10.16,6.747h-10.016c-0.068,0-0.121,0-0.149,0h-0.509h-1.803c-2.832,0-5.139-2.303-5.139-5.137V77.565
		c0-2.978,1.105-5.138,2.627-5.138c0.275,0,0.641,0.005,1.059,0.018h3.879c1.945,0,3.564,1.457,3.564,1.457l0.016,0.003
		c0.039,0.032,0.072,0.063,0.117,0.097c0.746,0.621,3.703,3.26,5.15,7.216c0.135,0.356,0.297,0.761,0.475,1.081
		c1.104,2.558,1.043,0.718,1.043,0.718v-1.829c0-0.004,0-0.01,0-0.014v-0.949v-7.779h0.014v-2.254v-0.65v-2.252h-0.014v-7.781
		v-0.952c0-0.003,0-0.007,0-0.012v-1.829c0,0,0.061-1.838-1.043,0.719c-0.178,0.32-0.34,0.725-0.475,1.084
		c-1.447,3.953-4.404,6.593-5.15,7.212c-0.045,0.032-0.078,0.067-0.117,0.098l-0.016,0.003c0,0-1.619,1.459-3.564,1.459h-3.879
		c-0.418,0.01-0.783,0.016-1.059,0.016c-1.521,0-2.627-2.158-2.627-5.139v-7.541v-0.697v-7.082c0-2.836,2.307-5.139,5.139-5.139
		h1.803h0.509c0.028,0,0.081,0,0.149,0h10.016c1.709,0.096,6.258,0.925,10.16,6.748c0.049,0.081,0.094,0.158,0.145,0.243
		c0.012,0.017,0.023,0.028,0.029,0.043c0,0.003,0,0.005,0.008,0.009c0.652,1.07,1.404,2.301,2.092,3.4
		c0.576,1.092,1.153,2.181,1.73,3.271c0.406,0.761,0.803,1.529,1.209,2.291c0.141,0.254,0.383,0.607,0.541,0.142
		c0.037-0.11,0.025-0.216,0.021-0.325c-0.004-0.439-0.025-0.879-0.039-1.316l0.057-16.395
		C1135.387,39.818,1135.666,37.168,1130.709,37.176z"/>
	<path fill="#FFFFFF" d="M330.226,37.176c-0.038,0-0.064,0.008-0.105,0.008c-0.051-0.003-0.101-0.008-0.15-0.008
		c-0.032,0-0.047,0-0.047,0c-0.572,0-1.144,0-1.714,0c-1.032,0-2.06,0-3.095,0c-1.316,0-2.639,0-3.956,0c-1.538,0-3.077,0-4.616,0
		c-1.68,0-3.369,0-5.053,0c-1.764,0-3.527,0-5.29,0c-1.772,0-3.54,0-5.31,0c-1.708,0-3.414,0-5.127,0c-1.572,0-3.146,0-4.723,0
		c-0.76,0-1.516,0-2.278,0h-0.104h-0.221h-5.629h-0.656l-0.008,0.002h-1.26c0,0-1.263-0.042,0.496,0.719
		c0.221,0.119,0.502,0.232,0.744,0.322c2.725,0.998,4.539,3.037,4.969,3.553c0.777,1.088,1.341,2.361,1.564,3.611v1.184v7.361v0.697
		v8.568v6.348v0.65v6.348V93.86v1.184c-0.224,1.251-0.787,2.523-1.564,3.614c-0.43,0.514-2.244,2.552-4.969,3.548
		c-0.242,0.093-0.523,0.207-0.744,0.327c-1.759,0.76-0.496,0.717-0.496,0.717h1.26l0.008,0.003h0.656h5.629h0.221h0.104
		c0.763,0,1.519,0,2.278,0c1.576,0,3.15,0,4.723,0c1.713,0,3.419,0,5.127,0c1.77,0,3.537,0,5.31,0c1.763,0,3.526,0,5.29,0
		c1.684,0,3.373,0,5.053,0c1.539,0,3.078,0,4.616,0c1.317,0,2.64,0,3.956,0c1.035,0,2.063,0,3.095,0c0.57,0,1.142,0,1.714,0
		c0,0,0.015,0,0.047,0c0.05,0,0.1-0.007,0.15-0.009c0.041,0,0.068,0.009,0.105,0.009c4.959,0.005,4.68-2.644,4.68-2.644
		l-0.055-16.396c0.012-0.438,0.034-0.874,0.037-1.314c0.002-0.111,0.014-0.216-0.023-0.324c-0.155-0.467-0.396-0.116-0.537,0.141
		c-0.406,0.76-0.806,1.529-1.211,2.292c-0.574,1.091-1.154,2.18-1.732,3.271c-0.684,1.101-1.441,2.331-2.095,3.4
		c0,0.004,0,0.007-0.001,0.01c-0.01,0.014-0.018,0.025-0.031,0.042c-0.048,0.084-0.096,0.162-0.146,0.242
		c-3.899,5.824-8.447,6.655-10.16,6.747h-10.015c-0.067,0-0.117,0-0.151,0h-0.502h-1.807c-2.832,0-5.14-2.303-5.14-5.137V77.565
		c0-2.978,1.106-5.138,2.63-5.138c0.27,0,0.637,0.005,1.061,0.018h3.877c1.942,0,3.563,1.457,3.563,1.457l0.011,0.003
		c0.044,0.032,0.075,0.063,0.122,0.097c0.746,0.621,3.705,3.26,5.155,7.216c0.128,0.356,0.294,0.761,0.466,1.081
		c1.106,2.558,1.045,0.718,1.045,0.718v-1.829c0-0.004,0-0.01,0-0.014v-0.949v-7.779h0.02v-2.254v-0.65v-2.252h-0.02v-7.781v-0.952
		c0-0.003,0-0.007,0-0.012v-1.829c0,0,0.062-1.838-1.045,0.719c-0.172,0.32-0.338,0.725-0.466,1.084
		c-1.45,3.953-4.409,6.593-5.155,7.212c-0.047,0.032-0.078,0.067-0.122,0.098l-0.011,0.003c0,0-1.62,1.459-3.563,1.459h-3.877
		c-0.424,0.01-0.791,0.016-1.061,0.016c-1.523,0-2.63-2.158-2.63-5.139v-7.541v-0.697v-7.082c0-2.836,2.308-5.139,5.14-5.139h1.807
		h0.502c0.034,0,0.084,0,0.151,0h10.015c1.713,0.096,6.261,0.925,10.16,6.748c0.051,0.081,0.099,0.158,0.146,0.243
		c0.013,0.017,0.021,0.028,0.031,0.043c0.001,0.003,0.001,0.005,0.001,0.009c0.653,1.07,1.411,2.301,2.095,3.4
		c0.578,1.092,1.158,2.181,1.732,3.271c0.405,0.761,0.805,1.529,1.211,2.291c0.142,0.254,0.382,0.607,0.537,0.142
		c0.037-0.11,0.025-0.216,0.023-0.325c-0.003-0.439-0.025-0.879-0.037-1.316l0.055-16.395
		C334.906,39.818,335.185,37.168,330.226,37.176z"/>
	<path fill="#FFFFFF" d="M930.791,71.539c-1.211-0.777-1.891-1.872-1.918-3.078c-0.027-1.209,0.602-2.331,1.777-3.158
		c0.07-0.052,7.527-5.438,7.527-11.686c0-2.135-0.5-4.412-1.489-6.764c-1.003-2.415-2.681-4.467-4.978-6.098
		c-0.785-0.606-1.652-1.107-2.551-1.531c-0.18-0.09-0.361-0.172-0.539-0.252c-0.061-0.025-0.117-0.057-0.18-0.082
		c-1.02-0.449-2.061-0.787-3.115-1.008c-3.986-0.979-7.604-0.824-7.604-0.824c-0.527,0-1.059,0-1.586,0c-1.766,0-3.527,0-5.287,0
		c-1.773,0-3.545,0-5.313,0c-1.711,0-3.418,0-5.125,0c-1.576,0-3.15,0-4.726,0c-0.761,0-1.515,0-2.272,0h-0.107h-0.225h-5.625
		h-0.654h-0.012h-1.258c0,0-1.266-0.041,0.494,0.719c0.221,0.121,0.498,0.234,0.746,0.325c2.721,0.996,4.54,3.032,4.965,3.55
		c0.78,1.09,1.344,2.363,1.568,3.613v1.182v7.363v0.696v8.568v6.347v0.651v6.349v17.32v1.184c-0.225,1.25-0.788,2.523-1.568,3.613
		c-0.425,0.514-2.244,2.553-4.965,3.549c-0.248,0.092-0.525,0.205-0.746,0.326c-1.76,0.759-0.494,0.718-0.494,0.718h1.258
		l0.012,0.003h0.654h5.625h0.225h0.107c0.758,0,1.512,0,2.272,0c1.575,0,3.149,0,4.726,0c1.707,0,3.414,0,5.125,0
		c1.451,0,2.901,0,4.352,0c0.318,0,0.637,0,0.961,0c1.68,0,3.365,0,5.046,0c0.079,0,0.163,0,0.241,0c0.527,0,1.059,0,1.586,0v-0.037
		c0.686-0.016,1.334-0.033,1.906-0.049c0.308-0.008,3.068-0.115,5.467-0.523c2.658-0.457,5.295-1.615,7.832-3.449
		c2.543-1.85,4.434-4.082,5.6-6.639c1.16-2.52,1.743-4.967,1.743-7.27C940.271,77.715,930.887,71.598,930.791,71.539z
		 M905.986,54.507v-0.696v-7.082c0-2.408,1.666-4.418,3.902-4.973v0.001c0.145-0.015,0.281-0.05,0.43-0.05
		c1.979,0,5.502,0.071,7.857,0.159c0.004,0,0.613,0.011,2.152,0.399c1.309,0.341,2.33,1.221,3.211,2.769
		c0.904,1.6,1.381,4.368,1.381,8.015c0,4.757-0.723,8.247-2.146,10.376c-1.383,2.062-5.335,2.507-5.5,2.525
		c-0.678,0.079-1.445,0.151-2.229,0.215c-2.336,0.011-6.24,0.028-6.432,0.028c-1.521,0-2.627-2.157-2.627-5.137V54.507z
		 M924.482,94.328c-1.178,1.988-2.529,3.163-4.133,3.596c-1.495,0.413-2.531,0.515-2.902,0.537
		c-1.268,0.057-2.809,0.105-4.244,0.141h-0.273h-1.807c-2.834,0-5.137-2.304-5.137-5.137V81.01v-3.563v-0.992
		c0-2.979,1.105-5.138,2.627-5.138c0.2,0,5.032,0.017,7.59,0.028c0.342,0.035,0.674,0.068,0.983,0.104
		c0.788,0.098,4.726,0.669,6.397,2.625c1.805,2.123,2.717,5.612,2.717,10.378C926.301,88.91,925.672,92.324,924.482,94.328z"/>
	<path fill="#FFFFFF" d="M1013.934,100.203c-0.131-0.096-0.25-0.196-0.373-0.297c-0.227-0.177-0.374-0.293-0.374-0.293
		c0.013,0,0.032,0.009,0.048,0.013c-1.818-1.661-2.449-3.921-2.645-5.106c-0.084-0.492-0.096-0.799-0.096-0.799v-4.413
		c0-1.562-0.094-3.014-0.246-4.396h-0.105c-0.648-4.818-2.232-8.494-4.783-10.9c-1.668-1.563-2.707-2.214-2.9-2.328
		c-1.301-0.72-1.981-1.693-1.916-2.746c0.074-1.053,0.889-1.926,2.283-2.463c0.033-0.013,2.99-1.16,5.02-2.908
		c3.146-2.706,4.744-6.28,4.744-10.617c0-3.475-1.084-6.585-3.225-9.252c-2.121-2.654-4.693-4.434-7.65-5.29
		c-2.789-0.802-6.625-1.01-6.662-1.012c-2.205-0.114-5.666-0.206-7.996-0.217c-0.064-0.004-0.109-0.001-0.109-0.001h-0.207
		c-0.033,0-0.07-0.002-0.104-0.002c-0.318,0-0.641,0-0.959,0h-0.279h-0.375h-2.861h-2.769h-0.218h-0.109c-0.027,0-0.055,0-0.084,0
		c-0.73,0-1.459,0-2.191,0c-1.033,0-2.066,0-3.1,0c-0.027,0-0.055,0-0.078,0c-0.518,0-1.031,0-1.55,0c-0.022,0-0.052,0-0.077,0
		c-1.033,0-2.07,0-3.1,0c-0.76,0-1.514,0-2.275,0h-0.107h-0.219h-5.631h-0.656l-0.002,0.002h-1.266c0,0-1.268-0.042,0.492,0.719
		c0.221,0.119,0.502,0.232,0.746,0.322c2.729,0.998,4.541,3.037,4.973,3.553c0.775,1.088,1.344,2.361,1.563,3.611v1.184v17.32v6.35
		v0.65v6.346v7.68v0.565v8.265v1.184c-0.219,1.25-0.787,2.523-1.563,3.613c-0.432,0.514-2.244,2.553-4.973,3.549
		c-0.244,0.092-0.525,0.205-0.746,0.326c-1.76,0.759-0.492,0.718-0.492,0.718h1.266l0.002,0.003h0.656h5.631h0.219h0.107
		c0.762,0,1.516,0,2.275,0c1.029,0,2.066,0,3.1,0c0.025,0,0.055,0,0.077,0c0.519,0,1.032,0,1.55,0c0.023,0,0.051,0,0.078,0
		c1.033,0,2.066,0,3.1,0c0.76,0,1.516,0,2.275,0h0.109h0.218h5.63h0.654c0,0,0.008-0.003,0.011-0.003h1.259
		c0,0,1.266,0.041-0.498-0.718c-0.219-0.121-0.496-0.234-0.744-0.326c-2.721-0.996-4.539-3.035-4.965-3.549
		c-0.781-1.09-1.345-2.363-1.564-3.613v-1.184v-8.265v-0.565v-7.68V76.02c0.48-7.042,9.451-5,10.531-4.727
		c0.729,0.19,1.582,0.473,2.385,0.889c0.006,0.001,0.006,0.001,0.01,0.004c0.02,0.006,0.035,0.017,0.051,0.024
		c0.034,0.021,0.072,0.039,0.109,0.058c4.422,2.061,4.064,8.617,4.064,8.617l-0.004-0.001c0.123,1.534,0.189,3.09,0.189,4.353
		c-0.027,2.209,0.225,5.686,0.572,7.871c0,0.02,0.393,2.182,2.475,5.189c1.818,2.622,4.695,4.17,8.553,4.654
		c0.115,0.015,0.229,0.031,0.35,0.047c1.305,0,5.857,0.005,7.582,0c0.199,0,0.371,0,0.484-0.004
		c0.516-0.003,0.363-0.354-0.004-0.774C1016.242,102.023,1014.832,100.91,1013.934,100.203z M997.459,62.025
		c-0.963,1.853-2.146,2.906-3.701,3.326c-1.674,0.459-3.197,0.531-3.364,0.537c-1.724,0.067-3.956,0.127-5.683,0.154
		c-2.619-0.232-5.305-1.42-5.535-5.227V46.589c0.131-2.713,2.299-4.882,4.973-4.882c2.289,0,6.033,0.08,8.346,0.176
		c0.123,0.009,0.146,0.014,1.621,0.383c1.309,0.338,2.406,1.231,3.371,2.732c0.676,1.044,1.482,3.209,1.482,7.57
		C998.969,57.992,998.146,60.703,997.459,62.025z"/>
	<path fill="#FFFFFF" d="M409.078,100.203c-0.134-0.096-0.25-0.196-0.375-0.297c-0.227-0.177-0.373-0.293-0.373-0.293
		c0.012,0,0.032,0.009,0.045,0.013c-1.818-1.661-2.445-3.921-2.643-5.106c-0.082-0.492-0.096-0.799-0.096-0.799v-4.413
		c0-1.562-0.094-3.014-0.244-4.396h-0.109c-0.645-4.818-2.23-8.494-4.783-10.9c-1.662-1.563-2.705-2.214-2.898-2.328
		c-1.304-0.72-1.982-1.693-1.918-2.746c0.078-1.053,0.89-1.926,2.285-2.463c0.032-0.013,2.986-1.16,5.021-2.908
		c3.144-2.706,4.739-6.28,4.739-10.617c0-3.475-1.082-6.585-3.222-9.252c-2.119-2.654-4.692-4.434-7.645-5.29
		c-2.797-0.802-6.629-1.01-6.668-1.012c-2.197-0.114-5.662-0.206-7.996-0.217c-0.062-0.004-0.109-0.001-0.109-0.001h-0.207
		c-0.031,0-0.068-0.002-0.098-0.002c-0.322,0-0.641,0-0.961,0h-0.283h-0.373h-2.858h-2.774h-0.214h-0.107c-0.03,0-0.062,0-0.085,0
		c-0.733,0-1.461,0-2.193,0c-1.034,0-2.066,0-3.104,0c-0.023,0-0.051,0-0.076,0c-0.514,0-1.031,0-1.547,0c-0.025,0-0.053,0-0.078,0
		c-1.031,0-2.068,0-3.102,0c-0.76,0-1.516,0-2.277,0h-0.104h-0.222h-5.627h-0.656l-0.008,0.002h-1.258c0,0-1.271-0.042,0.492,0.719
		c0.221,0.119,0.499,0.232,0.745,0.322c2.727,0.998,4.537,3.037,4.969,3.553c0.778,1.088,1.341,2.361,1.565,3.611v1.184v17.32v6.35
		v0.65v6.346v7.68v0.565v8.265v1.184c-0.224,1.25-0.787,2.523-1.565,3.613c-0.432,0.514-2.242,2.553-4.969,3.549
		c-0.246,0.092-0.524,0.205-0.745,0.326c-1.763,0.759-0.492,0.718-0.492,0.718h1.258l0.006,0.003h0.658h5.627h0.222h0.104
		c0.762,0,1.518,0,2.277,0c1.033,0,2.07,0,3.102,0c0.025,0,0.053,0,0.078,0c0.516,0,1.033,0,1.547,0c0.025,0,0.053,0,0.076,0
		c1.037,0,2.069,0,3.104,0c0.758,0,1.516,0,2.278,0h0.107h0.214h5.633h0.656l0.007-0.003h1.259c0,0,1.265,0.041-0.494-0.718
		c-0.219-0.121-0.498-0.234-0.746-0.326c-2.726-0.996-4.539-3.035-4.967-3.549c-0.779-1.09-1.342-2.363-1.562-3.613v-1.184v-8.265
		v-0.565v-7.68V76.02c0.476-7.042,9.45-5,10.531-4.727c0.726,0.19,1.585,0.473,2.387,0.889c0,0.001,0.003,0.001,0.003,0.004
		c0.021,0.006,0.035,0.017,0.053,0.024c0.037,0.021,0.076,0.039,0.11,0.058c4.419,2.061,4.064,8.617,4.064,8.617l-0.003-0.001
		c0.123,1.534,0.189,3.09,0.189,4.353c-0.032,2.209,0.221,5.686,0.572,7.871c0.001,0.02,0.389,2.182,2.477,5.189
		c1.813,2.622,4.693,4.17,8.55,4.654c0.116,0.015,0.229,0.031,0.349,0.047c1.309,0,5.856,0.005,7.586,0c0.195,0,0.368,0,0.48-0.004
		c0.519-0.003,0.362-0.354-0.003-0.774C411.386,102.023,409.972,100.91,409.078,100.203z M392.6,62.025
		c-0.966,1.853-2.141,2.906-3.702,3.326c-1.673,0.459-3.193,0.531-3.361,0.537c-1.723,0.067-3.953,0.127-5.681,0.154
		c-2.622-0.232-5.309-1.42-5.537-5.227V46.589c0.13-2.713,2.296-4.882,4.97-4.882c2.295,0,6.038,0.08,8.348,0.176
		c0.125,0.009,0.144,0.014,1.621,0.383c1.309,0.338,2.408,1.231,3.369,2.732c0.674,1.044,1.483,3.209,1.483,7.57
		C394.11,57.992,393.288,60.703,392.6,62.025z"/>
	<path fill="#FFFFFF" d="M1202.965,37.176c-0.041,0-0.064,0.008-0.107,0.008c-0.051-0.003-0.098-0.008-0.148-0.008
		c-0.033,0-0.047,0-0.047,0c-0.574,0-1.146,0-1.717,0c-1.029,0-2.061,0-3.093,0c-1.319,0-2.638,0-3.958,0c-1.535,0-3.076,0-4.613,0
		c-1.684,0-3.365,0-5.054,0c-1.765,0-3.528,0-5.288,0c-1.773,0-3.541,0-5.311,0c-1.713,0-3.416,0-5.127,0c-1.574,0-3.15,0-4.727,0
		c-0.76,0-1.516,0-2.273,0h-0.104h-0.223h-5.629h-0.656c-0.002,0-0.008,0.002-0.008,0.002h-1.26c0,0-1.27-0.042,0.494,0.719
		c0.221,0.119,0.498,0.232,0.748,0.322c2.721,0.998,4.537,3.037,4.965,3.553c0.777,1.088,1.344,2.361,1.568,3.611v1.184v7.361v0.697
		v8.568v6.348v0.65v6.348V93.86v1.184c-0.225,1.251-0.791,2.523-1.568,3.614c-0.428,0.514-2.244,2.552-4.965,3.548
		c-0.25,0.093-0.527,0.207-0.748,0.327c-1.764,0.76-0.494,0.717-0.494,0.717h1.26c0,0,0.006,0.003,0.008,0.003h0.656h5.629h0.223
		h0.104c0.758,0,1.514,0,2.273,0c1.576,0,3.152,0,4.727,0c1.711,0,3.414,0,5.127,0c0.131,0,0.262,0,0.395,0c0.02,0,0.035,0,0.055,0
		h0.168h5.627h0.656l0.01-0.003h1.256c0,0,1.267,0.043-0.49-0.717c-0.223-0.12-0.5-0.234-0.75-0.327
		c-2.723-0.996-4.537-3.034-4.967-3.548c-0.735-1.031-1.268-2.223-1.51-3.406v-1.67v-9.349v-6.668c0-2.978,1.102-5.138,2.627-5.138
		c0.27,0,0.635,0.005,1.059,0.018h3.877c1.943,0,3.566,1.457,3.566,1.457l0.01,0.003c0.041,0.032,0.07,0.063,0.119,0.097
		c0.746,0.621,3.705,3.26,5.154,7.216c0.131,0.356,0.293,0.761,0.471,1.081c1.104,2.558,1.043,0.718,1.043,0.718v-1.829
		c0-0.004,0-0.01,0-0.014v-0.949v-7.779h0.015v-2.254v-0.65v-2.252h-0.015v-7.781v-0.952c0-0.003,0-0.007,0-0.012v-1.829
		c0,0,0.061-1.838-1.043,0.719c-0.178,0.32-0.34,0.725-0.471,1.084c-1.449,3.953-4.408,6.593-5.154,7.212
		c-0.049,0.032-0.078,0.067-0.119,0.098l-0.01,0.003c0,0-1.623,1.459-3.566,1.459h-3.877c-0.424,0.01-0.789,0.016-1.059,0.016
		c-1.525,0-2.627-2.158-2.627-5.139v-7.541v-0.697v-7.082c0-2.836,2.301-5.139,5.135-5.139h1.808h0.505c0.029,0,0.079,0,0.146,0
		h10.014c1.71,0.096,6.264,0.925,10.164,6.748c0.049,0.081,0.096,0.158,0.146,0.243c0.008,0.017,0.018,0.028,0.027,0.043
		c0.002,0.003,0.002,0.005,0.004,0.009c0.654,1.07,1.408,2.301,2.096,3.4c0.578,1.092,1.15,2.181,1.729,3.271
		c0.405,0.761,0.806,1.529,1.212,2.291c0.141,0.254,0.383,0.607,0.537,0.142c0.037-0.11,0.027-0.216,0.025-0.325
		c-0.006-0.439-0.025-0.879-0.039-1.316l0.055-16.395C1207.643,39.818,1207.924,37.168,1202.965,37.176z"/>
	<path fill="#FFFFFF" d="M1055.502,76.539v-3.262v-2.459v-0.627v-0.025v-0.625v-2.459V63.82V46.496v-1.182
		c0.219-1.25,0.783-2.523,1.559-3.615c0.432-0.515,2.25-2.551,4.971-3.549c0.246-0.089,0.525-0.203,0.748-0.324
		c1.76-0.76,0.489-0.72,0.489-0.72h-1.257h-0.008h-0.654h-5.629h-0.219h-0.109c-0.762,0-1.518,0-2.277,0c-1.031,0-2.064,0-3.1,0
		c-0.025,0-0.053,0-0.078,0c-0.258,0-0.514,0-0.775,0c-0.254,0-0.516,0-0.773,0c-0.02,0-0.051,0-0.074,0c-1.035,0-2.068,0-3.105,0
		c-0.76,0-1.516,0-2.273,0h-0.107h-0.219h-5.631h-0.654c0,0-0.008,0-0.011,0h-1.261c0,0-1.262-0.04,0.496,0.72
		c0.221,0.121,0.504,0.235,0.748,0.324c2.727,0.998,4.541,3.034,4.967,3.549c0.779,1.092,1.339,2.365,1.564,3.615v1.182V63.82v3.262
		v2.459v0.625v0.025v0.627v2.459v3.262V93.86v1.184c-0.226,1.251-0.785,2.523-1.564,3.614c-0.426,0.514-2.24,2.552-4.967,3.548
		c-0.244,0.093-0.527,0.207-0.748,0.327c-1.758,0.76-0.496,0.717-0.496,0.717h1.261c0.003,0,0.009,0.003,0.009,0.003h0.656h5.631
		h0.219h0.107c0.758,0,1.514,0,2.273,0c1.037,0,2.07,0,3.105,0c0.023,0,0.055,0,0.074,0c0.258,0,0.52,0,0.773,0
		c0.262,0,0.518,0,0.775,0c0.025,0,0.053,0,0.078,0c1.035,0,2.068,0,3.1,0c0.76,0,1.516,0,2.277,0h0.109h0.219h5.629h0.654
		l0.006-0.003h1.259c0,0,1.271,0.043-0.489-0.717c-0.223-0.12-0.502-0.234-0.748-0.327c-2.721-0.996-4.539-3.034-4.971-3.548
		c-0.775-1.091-1.34-2.363-1.559-3.614V93.86V76.539z"/>
	<path fill="#FFFFFF" d="M490.04,37.137c-0.128-0.029-0.297-0.024-0.297-0.024h-1.254h-0.009h-0.648h-5.604h-0.324v0.01
		c-1.438,0-2.872,0-4.313,0v-0.01h-0.326h-5.6h-0.652h-0.008h-1.252c0,0-1.26-0.04,0.49,0.715c0.141,0.077,0.304,0.148,0.469,0.215
		c0.096,0.039,0.189,0.075,0.283,0.11c2.705,0.993,4.51,3.018,4.934,3.529c0.307,0.51,0.521,1.088,0.666,1.678
		c0.283,1.154,0.279,2.347,0.026,3.129l-12.174,29.383c-0.579,1.827-1.487,2.221-2.153,2.221c-0.646,0-1.553-0.387-2.186-2.242
		l-12.906-29.313c-0.254-0.736-0.312-2.401,0.262-4.087c0.375-1.104,1.016-2.217,2.061-3.081c0.608-0.498,1.349-0.912,2.247-1.193
		c0.249-0.076,0.525-0.203,0.747-0.322c0.567-0.244,0.819-0.406,0.899-0.512c0.233-0.249-0.383-0.229-0.383-0.229h-1.252h-0.006
		h-0.653h-5.144h-0.455h-0.326h-11.842h-0.326h-0.34h-5.258h-0.65h-0.012h-1.25c0,0-0.169-0.005-0.296,0.024
		c-0.273,0.016-0.773,0.114,0.619,0.717c0.22,0.119,0.501,0.232,0.745,0.322c0.847,0.313,5.769,4.496,7.122,7.896
		c0,0,3.59,8.722,7.973,19.347l6.125,15.149c2.505,6.536,5.014,12.831,7.015,17.353c0.885,1.994,1.665,3.635,2.305,4.799
		c0.071,0.133,0.149,0.277,0.217,0.396c0.019,0.033,0.028,0.054,0.032,0.054c0.557,0.961,0.99,1.503,1.258,1.503
		c0.197,0,0.558-0.531,1.045-1.49c0.062-0.121,0.132-0.274,0.198-0.41c0.991-2.029,2.427-5.557,4.114-9.959
		c1.427-3.726,3.025-8.063,4.666-12.605l6.767-18.272c3.404-8.96,6.011-15.821,6.011-15.821c0.335-1.055,1.572-3.234,1.572-3.234
		c0.209-0.398,0.438-0.787,0.696-1.15c0.43-0.517,2.244-2.557,4.968-3.553c0.246-0.09,0.527-0.203,0.744-0.322
		C490.812,37.251,490.31,37.152,490.04,37.137z"/>
	<path fill="#FFFFFF" d="M759.195,37.137c-0.074-0.004-0.131-0.001-0.131-0.001h-1.26h-0.01h-0.651h-4.163h-1.469h-0.326v0.009
		c-0.967,0-1.932,0-2.896,0c-0.479,0-0.959,0-1.439,0v-0.009h-0.326h-5.63h-0.655h-0.008h-1.26c0,0-1.27-0.043,0.492,0.718
		c0.223,0.119,0.5,0.232,0.748,0.322c2.723,0.996,4.541,3.036,4.971,3.553c0.273,0.457,0.473,0.971,0.617,1.493l-0.051,0.138
		c0.285,1.154,0.279,2.347,0.027,3.129l-12.174,29.383c-0.578,1.827-1.488,2.221-2.152,2.221c-0.648,0-1.555-0.387-2.188-2.242
		l-12.907-29.313c-0.253-0.736-0.31-2.401,0.265-4.087l-0.021-0.054c0.385-1.09,1.041-2.18,2.08-3.027
		c0.613-0.51,1.363-0.936,2.277-1.221c0.248-0.076,0.521-0.201,0.744-0.321c0.523-0.226,0.773-0.38,0.871-0.485
		c0.176-0.227-0.406-0.206-0.406-0.206h-1.26H720.9h-0.658h-5.17h-0.457h-0.152h-0.176h-11.906h-0.326h-0.34h-0.883h-4.406h-0.652
		h-0.014h-1.256c0,0-0.057-0.003-0.127,0.001c-0.225,0.053-0.324,0.211,0.785,0.69c0.223,0.12,0.5,0.232,0.742,0.321
		c0.844,0.311,5.738,4.473,7.084,7.855l7.85,19.414c1.473,3.571,3.037,7.358,4.584,11.104c0.512,1.35,1.025,2.703,1.539,4.046
		l7.016,17.353c0.885,1.994,1.664,3.635,2.305,4.799c0.071,0.133,0.148,0.277,0.219,0.396c0.016,0.033,0.025,0.054,0.029,0.054
		c0.557,0.961,0.991,1.503,1.26,1.503c0.197,0,0.555-0.531,1.043-1.49c0.062-0.121,0.135-0.274,0.199-0.41
		c0.989-2.029,2.428-5.557,4.114-9.959l4.666-12.605c0.958-2.652,1.933-5.373,2.896-8.086c1.338-3.52,2.654-6.986,3.871-10.187
		l5.885-15.892c0.334-1.049,1.568-3.217,1.568-3.217c0.205-0.395,0.432-0.783,0.689-1.145c0.43-0.514,2.232-2.541,4.941-3.533
		c0.246-0.089,0.523-0.201,0.742-0.321C759.516,37.348,759.416,37.189,759.195,37.137z"/>
	<path fill="#FFFFFF" d="M558.635,102.864c-0.218-0.12-0.5-0.231-0.745-0.322c-0.686-0.251-4.038-3.042-6.008-5.897
		c-0.446-0.65-0.814-1.302-1.064-1.928l-7.85-19.414c-0.303-0.733-0.611-1.483-0.92-2.234c-1.197-2.898-2.436-5.896-3.665-8.87
		c-0.415-1.101-0.834-2.2-1.255-3.296l-7.461-18.461c-0.816-1.826-1.543-3.35-2.143-4.44c-0.068-0.126-0.143-0.265-0.209-0.38
		c-0.002-0.006-0.006-0.012-0.01-0.017c-0.017-0.033-0.027-0.054-0.031-0.054c-0.556-0.961-0.989-1.502-1.257-1.502
		c-0.198,0-0.558,0.531-1.044,1.488c-0.063,0.122-0.135,0.276-0.2,0.411c-0.99,2.029-2.427,5.557-4.114,9.959l-4.666,12.606
		c-0.959,2.652-1.932,5.371-2.895,8.086c-1.338,3.52-2.656,6.985-3.872,10.186l-5.882,15.891c-0.338,1.051-1.568,3.217-1.568,3.217
		c-0.207,0.396-0.435,0.784-0.691,1.146c-0.428,0.514-2.233,2.542-4.941,3.533c-0.249,0.089-0.525,0.202-0.745,0.321
		c-1.109,0.479-1.009,0.638-0.787,0.689c0.031,0.003,0.059,0.003,0.081,0.003h0.046h1.09h0.006H496h0.009h0.481h0.173h4.164h1.293
		h0.172h0.156h0.172v-0.011c0.967,0,1.931,0,2.896,0c0.422,0,0.845,0,1.268,0v0.011h0.173h0.156h0.17h5.461h0.167h0.484h0.011h0.161
		h0.011h1.088h0.059c0.228-0.005,0.968-0.063-0.555-0.721c-0.219-0.12-0.5-0.231-0.75-0.322c-2.722-0.997-4.536-3.034-4.965-3.55
		c-0.408-0.683-0.651-1.479-0.775-2.262c-0.075-1.271,0.285-2.307,0.294-2.327l0.043-0.106l0.474-1.172l1.773-4.285
		c0.339-0.477,0.944-0.998,2.028-1.148c1.227-0.232,2.993-0.418,5.536-0.422c0.043,0,0.086,0,0.129,0
		c0.127-0.006,0.259-0.012,0.383-0.012h8.544c0,0,0.055,0,0.134,0.006c1.361,0,2.57,0,3.556,0h1.329v0.005c0.105,0,0.226,0,0.321,0
		c0.763,0.069,1.775,0.397,2.554,1.493c0.51,0.724,1.099,1.79,1.688,3.383l0.869,1.967c0.521,1.507,0.233,6.914-4.625,8.431
		c-0.25,0.077-0.525,0.202-0.745,0.322c-1.763,0.761-0.495,0.721-0.495,0.721h0.121h0.051h1.087h0.009h0.164h0.006h0.481h0.174
		h4.997h0.176h0.285h0.172h0.152h0.002h0.173h11.731h0.176h0.15h0.176h0.165h0.174h0.882h4.236h0.17h0.485h0.008h0.161h0.012h1.087
		h0.059h0.113c0,0,0.056,0.001,0.127-0.003c0.085-0.019,0.151-0.057,0.138-0.121C559.58,103.362,559.378,103.185,558.635,102.864z
		 M529.287,80.914c-1.037,1.029-2.43,1.556-4.156,1.59c-0.577,0.008-1.711,0.012-2.844,0.012c-1.137,0-2.271-0.004-2.838-0.012
		c-1.725-0.034-3.1-0.547-4.092-1.52c-0.658-0.705-0.895-1.459-0.945-2.153l5.792-13.981c0.579-1.828,1.489-2.222,2.153-2.222
		c0.385,0,0.863,0.146,1.319,0.649c0.244,0.33,0.481,0.765,0.687,1.365l5.662,12.871C530.193,78.35,530.294,79.826,529.287,80.914z"
		/>
</g>
</svg>
