<?xml version="1.0" encoding="UTF-8"?>
<!-- Generator: Adobe Illustrator 26.0.3, SVG Export Plug-In . SVG Version: 6.00 Build 0)  -->
<svg version="1.1" id="Layer_2" xmlns="http://www.w3.org/2000/svg" xmlns:xlink="http://www.w3.org/1999/xlink" x="0px" y="0px" viewBox="0 0 90 26.7" style="enable-background:new 0 0 90 26.7;" xml:space="preserve">
<style type="text/css">
	.Arched_x0020_Green{fill:url(#SVGID_1_);stroke:#FFFFFF;stroke-width:0.25;stroke-miterlimit:1;}
	.st0{fill:#F41500;}
</style>
<linearGradient id="SVGID_1_" gradientUnits="userSpaceOnUse" x1="-80.9712" y1="269.8704" x2="-80.2641" y2="269.1633">
	<stop offset="0" style="stop-color:#1EAB4B"/>
	<stop offset="0.9831" style="stop-color:#19361A"/>
</linearGradient>
<g>
	<path class="st0" d="M22.3,9.5h1.9c0.2,0,0.3,0,0.3-0.1c0.1-0.1,0.1-0.2,0.1-0.3V6.7h1.7c0.2,0,0.3,0,0.4,0.1   c0.1,0.1,0.1,0.2,0.1,0.4v1.9c0,0.2,0,0.3,0.1,0.3c0.1,0.1,0.2,0.1,0.3,0.1h1.9c0.2,0,0.3,0,0.3-0.1c0.1-0.1,0.1-0.2,0.1-0.3V6.5   c0-0.5-0.1-0.9-0.4-1.2c-0.3-0.3-0.6-0.5-1.1-0.5c0.3-0.1,0.4-0.3,0.5-0.5c0.1-0.2,0.2-0.5,0.2-0.9V2.8c0-0.6-0.2-1.1-0.5-1.5   c-0.3-0.4-1-0.6-1.9-0.6h-4c-0.2,0-0.3,0-0.3,0.1c-0.1,0.1-0.1,0.2-0.1,0.3v7.9c0,0.2,0,0.3,0.1,0.3C22,9.5,22.1,9.5,22.3,9.5z    M24.6,3h0.9c0.2,0,0.4,0.1,0.4,0.2c0.1,0.1,0.1,0.2,0.1,0.4V4c0,0.2,0,0.3-0.1,0.4c-0.1,0.1-0.2,0.2-0.4,0.2h-0.9V3z"/>
	<path class="st0" d="M37,0.8h-5.6c-0.2,0-0.3,0-0.3,0.1c-0.1,0.1-0.1,0.2-0.1,0.3v7.9c0,0.2,0,0.3,0.1,0.3c0.1,0.1,0.2,0.1,0.3,0.1   H37c0.2,0,0.3,0,0.3-0.1c0.1-0.1,0.1-0.2,0.1-0.3V7.7c0-0.2,0-0.3-0.1-0.3c-0.1-0.1-0.2-0.1-0.3-0.1h-3.4v-1H36   c0.2,0,0.3,0,0.3-0.1c0.1-0.1,0.1-0.2,0.1-0.3V4.5c0-0.2,0-0.3-0.1-0.3C36.2,4.1,36.1,4,36,4h-2.4V3.1H37c0.2,0,0.3,0,0.3-0.1   c0.1-0.1,0.1-0.2,0.1-0.3V1.2c0-0.2,0-0.3-0.1-0.3C37.2,0.8,37.1,0.8,37,0.8z"/>
	<path class="st0" d="M39.3,9.5h4.1c1,0,1.8-0.2,2.3-0.6c0.5-0.4,0.7-1,0.7-1.9V3.3c0-0.8-0.2-1.5-0.7-1.9c-0.5-0.4-1.2-0.6-2.3-0.6   h-4.1c-0.2,0-0.3,0-0.3,0.1c-0.1,0.1-0.1,0.2-0.1,0.3v7.9c0,0.2,0,0.3,0.1,0.3C39,9.5,39.1,9.5,39.3,9.5z M41.6,3.1H43   c0.2,0,0.3,0,0.4,0.1c0.1,0.1,0.1,0.2,0.1,0.4v3c0,0.2,0,0.4-0.1,0.4c-0.1,0.1-0.2,0.1-0.4,0.1h-1.4V3.1z"/>
	<path class="st0" d="M52.2,9.4c0.1,0.1,0.2,0.1,0.4,0.1h3.2c0.2,0,0.3,0,0.4-0.1c0.1-0.1,0.2-0.2,0.2-0.3l1.2-3   c0.1-0.2,0.1-0.3,0.2-0.5c0-0.1,0.1-0.3,0.1-0.4c0-0.1,0.1-0.2,0.1-0.4c0-0.1,0-0.3,0-0.5V1.2c0-0.2,0-0.3-0.1-0.3   c-0.1-0.1-0.2-0.1-0.3-0.1h-1.9c-0.2,0-0.3,0-0.3,0.1c-0.1,0.1-0.1,0.2-0.1,0.3v3.3c0,0.1,0,0.2,0,0.2c0,0.1,0,0.2-0.1,0.3   l-0.6,1.7c0,0.1-0.1,0.1-0.1,0.2c0,0-0.1,0-0.1,0h-0.1c-0.1,0-0.1,0-0.1,0c0,0-0.1-0.1-0.1-0.2l-0.6-1.7c0-0.1-0.1-0.2-0.1-0.3   c0-0.1,0-0.2,0-0.2V1.2c0-0.2,0-0.3-0.1-0.3c-0.1-0.1-0.2-0.1-0.4-0.1h-1.9c-0.2,0-0.3,0-0.3,0.1c-0.1,0.1-0.1,0.2-0.1,0.3v3.2   c0,0.2,0,0.4,0,0.5c0,0.1,0,0.3,0.1,0.4c0,0.1,0.1,0.2,0.1,0.4c0,0.1,0.1,0.3,0.2,0.5l1.2,3C52.1,9.3,52.1,9.4,52.2,9.4z"/>
	<path class="st0" d="M66.7,8.2c0.1-0.3,0.2-0.6,0.2-1V3.1c0-0.4-0.1-0.7-0.2-1c-0.1-0.3-0.3-0.6-0.6-0.8c-0.3-0.2-0.7-0.4-1.2-0.5   c-0.5-0.1-1.1-0.2-1.9-0.2c-0.8,0-1.4,0.1-1.9,0.2c-0.5,0.1-0.9,0.3-1.2,0.5c-0.3,0.2-0.5,0.5-0.6,0.8c-0.1,0.3-0.2,0.6-0.2,1v4.1   c0,0.4,0.1,0.7,0.2,1c0.1,0.3,0.3,0.6,0.6,0.8c0.3,0.2,0.7,0.4,1.2,0.5c0.5,0.1,1.1,0.2,1.9,0.2c0.8,0,1.4-0.1,1.9-0.2   c0.5-0.1,0.9-0.3,1.2-0.5C66.4,8.8,66.6,8.6,66.7,8.2z M64.1,6.8c0,0.2-0.1,0.3-0.2,0.4c-0.1,0.1-0.4,0.2-0.8,0.2   c-0.4,0-0.7-0.1-0.8-0.2c-0.1-0.1-0.2-0.2-0.2-0.4V3.5c0-0.2,0.1-0.3,0.2-0.4C62.4,3,62.7,3,63.1,3c0.4,0,0.7,0.1,0.8,0.2   c0.1,0.1,0.2,0.2,0.2,0.4V6.8z"/>
	<path class="st0" d="M68.7,9.5h5.2c0.2,0,0.3,0,0.3-0.1c0.1-0.1,0.1-0.2,0.1-0.3V7.6c0-0.2,0-0.3-0.1-0.3c-0.1-0.1-0.2-0.1-0.3-0.1   h-1.2V3.1h1.2c0.2,0,0.3,0,0.3-0.1c0.1-0.1,0.1-0.2,0.1-0.3V1.2c0-0.2,0-0.3-0.1-0.3c-0.1-0.1-0.2-0.1-0.3-0.1h-5.2   c-0.2,0-0.3,0-0.3,0.1c-0.1,0.1-0.1,0.2-0.1,0.3v1.5c0,0.2,0,0.3,0.1,0.3c0.1,0.1,0.2,0.1,0.3,0.1h1.2v4.1h-1.2   c-0.2,0-0.3,0-0.3,0.1c-0.1,0.1-0.1,0.2-0.1,0.3v1.4c0,0.2,0,0.3,0.1,0.3C68.4,9.5,68.5,9.5,68.7,9.5z"/>
	<path class="st0" d="M81.6,9.5c0.2,0,0.3,0,0.3-0.1C82,9.4,82,9.2,82,9.1V7.6c0-0.2,0-0.3-0.1-0.3c-0.1-0.1-0.2-0.1-0.3-0.1h-2.4   c-0.3,0-0.4,0-0.6-0.1c-0.1-0.1-0.2-0.2-0.2-0.4V3.7c0-0.2,0.1-0.4,0.2-0.5c0.1-0.1,0.3-0.2,0.6-0.2h2.4c0.2,0,0.3,0,0.3-0.1   C82,3,82,2.8,82,2.7V1.2c0-0.2,0-0.3-0.1-0.3c-0.1-0.1-0.2-0.1-0.3-0.1h-3c-1,0-1.8,0.2-2.3,0.6c-0.5,0.4-0.7,1-0.7,1.9v3.8   c0,0.8,0.2,1.5,0.7,1.9c0.5,0.4,1.2,0.6,2.3,0.6H81.6z"/>
	<path class="st0" d="M83.8,9.5h5.6c0.2,0,0.3,0,0.3-0.1c0.1-0.1,0.1-0.2,0.1-0.3V7.7c0-0.2,0-0.3-0.1-0.3c-0.1-0.1-0.2-0.1-0.3-0.1   h-3.4v-1h2.4c0.2,0,0.3,0,0.3-0.1c0.1-0.1,0.1-0.2,0.1-0.3V4.5c0-0.2,0-0.3-0.1-0.3C88.7,4.1,88.6,4,88.5,4h-2.4V3.1h3.4   c0.2,0,0.3,0,0.3-0.1c0.1-0.1,0.1-0.2,0.1-0.3V1.2c0-0.2,0-0.3-0.1-0.3c-0.1-0.1-0.2-0.1-0.3-0.1h-5.6c-0.2,0-0.3,0-0.3,0.1   c-0.1,0.1-0.1,0.2-0.1,0.3v7.9c0,0.2,0,0.3,0.1,0.3C83.5,9.5,83.7,9.5,83.8,9.5z"/>
	<path class="st0" d="M35.2,11.6H32c-0.2,0-0.4,0-0.5,0.1c-0.1,0.1-0.3,0.2-0.4,0.5l-1.8,3.2c-0.1,0.1-0.1,0.2-0.2,0.3   c0,0.1-0.1,0.1-0.2,0.1h-0.2c-0.1,0-0.1,0-0.2-0.1c0-0.1-0.1-0.1-0.2-0.3l-1.8-3.2c-0.1-0.2-0.2-0.4-0.4-0.5   c-0.1-0.1-0.3-0.1-0.5-0.1h-3.2c-0.2,0-0.4,0.1-0.5,0.2c-0.1,0.1-0.2,0.3-0.2,0.5v12.8c0,0.2,0.1,0.4,0.2,0.5   c0.1,0.1,0.3,0.2,0.5,0.2h2.9c0.2,0,0.4-0.1,0.5-0.2c0.1-0.1,0.2-0.3,0.2-0.5v-6.9l1.2,2.1c0.1,0.2,0.3,0.4,0.4,0.5   c0.2,0.1,0.4,0.1,0.6,0.1h0.8c0.2,0,0.5,0,0.6-0.1c0.2-0.1,0.3-0.3,0.4-0.5l1.2-2.1v6.9c0,0.2,0.1,0.4,0.2,0.5   c0.1,0.1,0.3,0.2,0.5,0.2h3c0.2,0,0.4-0.1,0.5-0.2c0.1-0.1,0.2-0.3,0.2-0.5V12.3c0-0.2-0.1-0.4-0.2-0.5   C35.6,11.7,35.4,11.6,35.2,11.6z"/>
	<path class="st0" d="M48.4,11.6h-9.1c-0.2,0-0.4,0.1-0.5,0.2c-0.1,0.1-0.2,0.3-0.2,0.5v12.8c0,0.2,0.1,0.4,0.2,0.5   c0.1,0.1,0.3,0.2,0.5,0.2h9.1c0.2,0,0.4-0.1,0.5-0.2c0.1-0.1,0.2-0.3,0.2-0.5v-2.3c0-0.2-0.1-0.4-0.2-0.5c-0.1-0.1-0.3-0.2-0.5-0.2   H43v-1.7h3.8c0.2,0,0.4-0.1,0.5-0.2c0.1-0.1,0.2-0.3,0.2-0.5v-2.1c0-0.2-0.1-0.4-0.2-0.5c-0.1-0.1-0.3-0.2-0.5-0.2H43v-1.5h5.4   c0.2,0,0.4-0.1,0.5-0.2c0.1-0.1,0.2-0.3,0.2-0.5v-2.3c0-0.2-0.1-0.4-0.2-0.5C48.9,11.7,48.7,11.6,48.4,11.6z"/>
	<path class="st0" d="M62.5,12.6c-0.8-0.7-2-1-3.7-1h-6.6c-0.2,0-0.4,0.1-0.5,0.2c-0.1,0.1-0.2,0.3-0.2,0.5v12.8   c0,0.2,0.1,0.4,0.2,0.5c0.1,0.1,0.3,0.2,0.5,0.2h6.6c1.6,0,2.9-0.3,3.7-1c0.8-0.7,1.2-1.7,1.2-3v-6.1   C63.7,14.2,63.3,13.2,62.5,12.6z M59.2,21.1c0,0.3-0.1,0.6-0.2,0.7C58.8,22,58.6,22,58.3,22h-2.3v-6.7h2.3c0.3,0,0.5,0.1,0.7,0.2   c0.2,0.2,0.2,0.4,0.2,0.7V21.1z"/>
	<path class="st0" d="M74.9,11.6h-8.4c-0.2,0-0.4,0.1-0.5,0.2c-0.1,0.1-0.2,0.3-0.2,0.5v2.4c0,0.2,0.1,0.4,0.2,0.5   c0.1,0.1,0.3,0.2,0.5,0.2h1.9V22h-1.9c-0.2,0-0.4,0.1-0.5,0.2c-0.1,0.1-0.2,0.3-0.2,0.5v2.3c0,0.2,0.1,0.4,0.2,0.5   c0.1,0.1,0.3,0.2,0.5,0.2h8.4c0.2,0,0.4-0.1,0.5-0.2c0.1-0.1,0.2-0.3,0.2-0.5v-2.3c0-0.2-0.1-0.4-0.2-0.5c-0.1-0.1-0.3-0.2-0.5-0.2   H73v-6.6h1.9c0.2,0,0.4-0.1,0.5-0.2c0.1-0.1,0.2-0.3,0.2-0.5v-2.4c0-0.2-0.1-0.4-0.2-0.5C75.4,11.7,75.2,11.6,74.9,11.6z"/>
	<path class="st0" d="M89.8,18.5c-0.1-0.5-0.3-1.1-0.6-1.8l-1.7-4.5c-0.1-0.2-0.2-0.4-0.4-0.5c-0.2-0.1-0.4-0.2-0.6-0.2h-5.3   c-0.3,0-0.5,0.1-0.6,0.2c-0.2,0.1-0.3,0.3-0.4,0.5l-1.7,4.5c-0.3,0.7-0.5,1.3-0.6,1.8s-0.2,1-0.2,1.4v5.2c0,0.2,0.1,0.4,0.2,0.5   c0.1,0.1,0.3,0.2,0.5,0.2h2.9c0.2,0,0.4-0.1,0.5-0.2c0.1-0.1,0.2-0.3,0.2-0.5v-2.8h3.5v2.8c0,0.2,0.1,0.4,0.2,0.5   c0.1,0.1,0.3,0.2,0.6,0.2h3c0.2,0,0.4-0.1,0.5-0.2c0.1-0.1,0.2-0.3,0.2-0.5v-5.2C90,19.5,90,19,89.8,18.5z M82.3,18.7l0.9-3   c0.1-0.1,0.1-0.2,0.2-0.3c0.1-0.1,0.1-0.1,0.2-0.1h0.5c0.1,0,0.1,0,0.2,0.1c0.1,0.1,0.1,0.1,0.2,0.3l0.9,3H82.3z"/>
	<path class="st0" d="M9.5,3.1C9.5,3.1,9.5,3.1,9.5,3.1L9,2.2c0,0,0,0,0,0L8.6,3.1c0,0,0,0,0,0l-1,0.1c0,0,0,0,0,0L8.3,4   c0,0,0,0,0,0L8.1,5c0,0,0,0,0,0L9,4.6c0,0,0,0,0,0L9.9,5c0,0,0,0,0,0L9.8,4c0,0,0,0,0,0l0.7-0.7c0,0,0,0,0,0L9.5,3.1z"/>
	<path class="st0" d="M9.5,13.8C9.5,13.8,9.5,13.8,9.5,13.8L9,12.9c0,0,0,0,0,0l-0.4,0.9c0,0,0,0,0,0l-1,0.1c0,0,0,0,0,0l0.7,0.7   c0,0,0,0,0,0l-0.2,1c0,0,0,0,0,0L9,15.3c0,0,0,0,0,0l0.9,0.5c0,0,0,0,0,0l-0.2-1c0,0,0,0,0,0l0.7-0.7c0,0,0,0,0,0L9.5,13.8z"/>
	<path class="st0" d="M13.4,12.1C13.4,12.1,13.4,12.1,13.4,12.1L13,11.2c0,0,0,0,0,0l-0.4,0.9c0,0,0,0,0,0l-1,0.1c0,0,0,0,0,0   l0.7,0.7c0,0,0,0,0,0l-0.2,1c0,0,0,0,0,0l0.9-0.5c0,0,0,0,0,0l0.9,0.5c0,0,0,0,0,0l-0.2-1c0,0,0,0,0,0l0.7-0.7c0,0,0,0,0,0   L13.4,12.1z"/>
	<path class="st0" d="M12.2,5.6C12.2,5.6,12.2,5.6,12.2,5.6l-0.2,1c0,0,0,0,0,0L13,6.1c0,0,0,0,0,0l0.9,0.5c0,0,0,0,0,0l-0.2-1   c0,0,0,0,0,0l0.7-0.7c0,0,0,0,0,0l-1-0.1c0,0,0,0,0,0L13,3.8c0,0,0,0,0,0l-0.4,0.9c0,0,0,0,0,0l-1,0.1c0,0,0,0,0,0L12.2,5.6z"/>
	<path class="st0" d="M15.2,8.3C15.2,8.3,15.2,8.3,15.2,8.3l-0.5-0.9c0,0,0,0,0,0l-0.4,0.9c0,0,0,0,0,0l-1,0.1c0,0,0,0,0,0L14,9.2   c0,0,0,0,0,0l-0.2,1c0,0,0,0,0,0l0.9-0.5c0,0,0,0,0,0l0.9,0.5c0,0,0,0,0,0l-0.2-1c0,0,0,0,0,0l0.7-0.7c0,0,0,0,0,0L15.2,8.3z"/>
	<path class="st0" d="M5.7,12.1C5.7,12.1,5.7,12.1,5.7,12.1l-0.4-0.9c0,0,0,0,0,0l-0.4,0.9c0,0,0,0,0,0l-1,0.1c0,0,0,0,0,0L4.5,13   c0,0,0,0,0,0l-0.2,1c0,0,0,0,0,0l0.9-0.5c0,0,0,0,0,0L6.1,14c0,0,0,0,0,0L6,13c0,0,0,0,0,0l0.7-0.7c0,0,0,0,0,0L5.7,12.1z"/>
	<path class="st0" d="M5.7,4.7C5.7,4.7,5.7,4.7,5.7,4.7L5.3,3.8c0,0,0,0,0,0L4.8,4.7c0,0,0,0,0,0l-1,0.1c0,0,0,0,0,0l0.7,0.7   c0,0,0,0,0,0l-0.2,1c0,0,0,0,0,0l0.9-0.5c0,0,0,0,0,0l0.9,0.5c0,0,0,0,0,0L6,5.6c0,0,0,0,0,0l0.7-0.7c0,0,0,0,0,0L5.7,4.7z"/>
	<path class="st0" d="M4.4,10.2l-0.2-1c0,0,0,0,0,0l0.7-0.7c0,0,0,0,0,0l-1-0.1c0,0,0,0,0,0L3.5,7.4c0,0,0,0,0,0L3,8.3c0,0,0,0,0,0   L2,8.5c0,0,0,0,0,0l0.7,0.7c0,0,0,0,0,0l-0.2,1c0,0,0,0,0,0l0.9-0.5c0,0,0,0,0,0L4.4,10.2C4.4,10.2,4.4,10.2,4.4,10.2z"/>
	<path class="st0" d="M16.1,0H2.2C1,0,0,1,0,2.2v22.3c0,1.2,1,2.2,2.2,2.2h13.9c1.2,0,2.2-1,2.2-2.2V2.2C18.2,1,17.3,0,16.1,0z    M17.1,17.4h-1.8v8.1h-1.8v-8.1h-1.8v8.1H10v-8.1H8.2v8.1H6.5v-8.1H4.7v8.1H2.9v-8.1H1.1V2.2c0-0.6,0.5-1,1-1h13.9c0.6,0,1,0.5,1,1   L17.1,17.4z"/>
</g>
</svg>