<svg width="137" height="32" viewBox="0 0 137 32" fill="none" xmlns="http://www.w3.org/2000/svg">
<path d="M18.3415 15.7811C18.5927 15.7759 18.8388 15.7244 19.0695 15.6317C19.3258 15.4773 19.5052 15.2147 19.5616 14.9161L21.2687 8.74269C20.669 8.7015 20.0692 8.76843 19.495 8.94349C19.0549 9.25427 18.7075 9.67972 18.4902 10.174L18.2852 10.1329L18.767 8.33594L24.9752 8.33594L24.4625 10.241L24.2575 10.2101L24.2882 9.80334C24.3087 9.51501 24.2216 9.22667 24.0473 9.00013C23.7756 8.78903 23.4321 8.6912 23.0886 8.73239L22.4376 8.73239L20.8074 14.5505C20.7715 14.6638 20.7458 14.7719 20.7202 14.8903C20.6895 15.0036 20.6741 15.1272 20.669 15.2456C20.669 15.4721 20.7407 15.6163 20.8791 15.6729C21.1457 15.745 21.4277 15.7811 21.7045 15.7708L21.7045 15.9613L18.3415 15.9613L18.3415 15.7811Z" fill="#111827"/>
<path d="M25.5031 8.30937L26.0977 8.22699C26.2464 8.2064 26.3797 8.1858 26.4925 8.16521C26.9436 8.07768 27.1897 8.03134 27.2204 8.02104C27.2461 8.01589 27.2768 8.01074 27.3024 8.01074C27.3486 8.03134 27.3691 8.06223 27.3691 8.09827L25.9593 13.2007C26.3079 12.6549 26.6924 12.1349 27.1128 11.6458C27.4562 11.1772 27.9791 10.8735 28.5533 10.8014C28.7378 10.8014 28.9224 10.8632 29.0711 10.9764C29.2556 11.1309 29.3479 11.3626 29.3223 11.5994C29.3223 11.6921 29.312 11.7899 29.2966 11.8826C29.2813 11.9856 29.2556 12.0886 29.23 12.1864L28.4764 14.9204C28.4559 14.9976 28.4354 15.0697 28.42 15.1418C28.4046 15.2036 28.3995 15.2705 28.3995 15.3323C28.3944 15.3838 28.4098 15.4353 28.4456 15.4764C28.4815 15.5125 28.5277 15.5279 28.5789 15.5228C28.743 15.497 28.8916 15.4095 28.9942 15.2756C29.0916 15.1727 29.2761 14.9461 29.5478 14.6012L29.6965 14.7402C29.4966 15.0491 29.271 15.3426 29.0198 15.6103C28.7635 15.8986 28.4098 16.0737 28.0253 16.0943C27.8869 16.0994 27.7484 16.048 27.6459 15.9501C27.5383 15.842 27.4819 15.6927 27.4921 15.5382C27.4921 15.4919 27.4921 15.4456 27.5024 15.3992C27.5075 15.3477 27.5178 15.3014 27.5331 15.2551L28.3892 11.9084C28.3944 11.8775 28.4046 11.8466 28.4098 11.8157C28.4149 11.7848 28.42 11.7487 28.42 11.7179C28.4225 11.6772 28.4166 11.6365 28.4024 11.5984C28.3883 11.5603 28.3663 11.5255 28.338 11.4965C28.2733 11.4423 28.1915 11.4131 28.1073 11.4141C27.8561 11.4141 27.5383 11.62 27.1538 12.0268C26.7898 12.4129 26.4617 12.83 26.1798 13.2831C26.0157 13.5508 25.8773 13.8391 25.7696 14.1326C25.6774 14.4004 25.4979 15.0131 25.2365 15.9707L24.3496 15.9707L26.2413 9.0405C26.2515 8.99931 26.2566 8.95811 26.2618 8.91692C26.2669 8.88603 26.2669 8.84999 26.2669 8.8191C26.2669 8.65434 26.2156 8.55651 26.108 8.52562C25.908 8.48958 25.703 8.47928 25.4979 8.49987L25.5031 8.30937Z" fill="#111827"/>
<path d="M31.4449 11.9957C31.7299 11.6471 32.084 11.3618 32.4846 11.1579C32.8853 10.9541 33.3238 10.8361 33.7723 10.8115C34.0235 10.7961 34.2747 10.8733 34.4797 11.0175C34.6592 11.1668 34.7566 11.3933 34.7412 11.625C34.7216 11.9241 34.6223 12.2125 34.4537 12.4598C34.285 12.7071 34.0532 12.9043 33.7825 13.0306C33.1674 13.4116 32.4804 13.6536 31.7678 13.7463L31.4449 13.7875C31.3936 13.942 31.3628 14.0707 31.3423 14.1582C31.3218 14.2766 31.3116 14.3899 31.3167 14.5083C31.3013 14.807 31.4192 15.0953 31.6448 15.2909C31.8601 15.4763 32.1369 15.5741 32.424 15.569C32.747 15.5587 33.0597 15.4609 33.3263 15.2858C33.6031 15.1056 33.8646 14.9048 34.1158 14.6937L34.2644 14.8276C34.0542 15.085 33.803 15.3115 33.5313 15.4969C33.0443 15.8779 32.4497 16.089 31.8294 16.1096C31.4346 16.1148 31.0553 15.9603 30.7733 15.6823C30.4555 15.3579 30.2863 14.9099 30.317 14.4568C30.3478 13.5146 30.7579 12.629 31.4449 11.9957ZM33.2904 12.7629C33.68 12.4797 33.9312 12.0421 33.9722 11.5581C33.9773 11.4345 33.9415 11.3109 33.8697 11.2131C33.8323 11.17 33.7856 11.1361 33.7332 11.1138C33.6808 11.0915 33.6241 11.0814 33.5672 11.0844C33.2955 11.0947 33.0341 11.208 32.8444 11.3985C32.6034 11.6096 32.3933 11.8516 32.2036 12.1142C32.019 12.3973 31.8601 12.696 31.7268 13.0049C31.6602 13.1542 31.5935 13.3293 31.5218 13.5249C32.1728 13.4528 32.788 13.1851 33.2904 12.7629Z" fill="#111827"/>
<path d="M34.9375 15.9157L34.9375 15.4832C35.4604 15.4523 35.9474 15.2103 36.2806 14.8036C36.8907 13.8047 37.4033 12.7492 37.8186 11.6526L42.663 0.191408L43.1244 0.191408L48.9173 13.4289C49.1318 14.0194 49.4438 14.5694 49.84 15.0559C50.1784 15.3082 50.5834 15.4523 51.0038 15.4781L51.0038 15.9106L45.0878 15.9106L45.0878 15.4781C45.5338 15.4626 45.9747 15.3854 46.4002 15.2567C46.595 15.1692 46.6924 14.9581 46.6975 14.6131C46.6822 14.4071 46.6412 14.2063 46.5848 14.0107C46.5027 13.7018 46.3951 13.398 46.2669 13.1045L45.3339 10.8596L39.2078 10.8596C38.6029 12.3888 38.244 13.3208 38.1261 13.6554C38.0236 13.9129 37.9672 14.1806 37.9518 14.4535C37.9211 14.7984 38.1159 15.128 38.4286 15.2721C38.7875 15.3957 39.1617 15.4678 39.541 15.4781L39.541 15.9106L34.9375 15.9157ZM44.9494 9.91742L42.2837 3.48662L39.6077 9.91742L44.9494 9.91742Z" fill="#111827"/>
<path d="M51.7568 15.6221C52.1669 15.617 52.5719 15.5191 52.9359 15.3235C53.2896 14.9785 53.4537 14.4894 53.3922 14.0002L53.3922 8.1049C53.4332 7.72389 53.3563 7.33773 53.1717 6.99791C52.9769 6.80741 52.7104 6.70958 52.4387 6.73533C52.3207 6.73018 52.1977 6.74048 52.0798 6.76107C51.9875 6.78167 51.8901 6.80741 51.803 6.84345L51.803 6.44185L52.6181 6.16896C52.9154 6.07114 53.3973 5.89093 54.074 5.63349C54.7456 5.37605 55.1044 5.24733 55.1403 5.24733C55.1762 5.24218 55.2069 5.26793 55.2069 5.30397C55.2172 5.37605 55.2223 5.44814 55.2172 5.52022L55.2172 7.0597C55.7965 6.49848 56.4475 6.01965 57.1601 5.63864C57.683 5.3812 58.2572 5.24733 58.8416 5.24733C59.549 5.21644 60.236 5.50992 60.7025 6.04539C60.9742 6.39551 61.1792 6.79197 61.3023 7.21931C61.7483 6.75078 62.2353 6.32343 62.7684 5.95272C63.4177 5.50401 64.1848 5.25855 64.9728 5.24734C66.1929 5.24734 67.0029 5.74677 67.413 6.74048C67.6898 7.60032 67.8129 8.50651 67.7667 9.40754L67.7667 14.1393C67.7154 14.5409 67.8487 14.9425 68.1256 15.2411C68.5152 15.4831 68.956 15.617 69.4123 15.6221L69.4123 15.9156L64.291 15.9156L64.291 15.5964C64.7524 15.6015 65.2086 15.4625 65.588 15.1948C65.8443 14.8292 65.952 14.3813 65.9007 13.9385L65.9007 9.02653C65.9314 8.47046 65.8494 7.91955 65.6597 7.39437C65.5168 7.08545 65.2814 6.82908 64.9864 6.66108C64.6914 6.49308 64.3515 6.42183 64.0142 6.4573C63.4861 6.46759 62.9786 6.6375 62.548 6.94643C62.1738 7.21931 61.8303 7.52309 61.5125 7.85776L61.5125 13.6965C61.4817 14.1856 61.5945 14.6747 61.8354 15.0969C62.0507 15.4162 62.507 15.5861 63.2042 15.6118L63.2042 15.9053L58.0008 15.9053L58.0008 15.6118C58.5084 15.6118 58.9954 15.4264 59.3747 15.0866C59.5695 14.8292 59.6721 14.1907 59.6721 13.1713L59.6721 9.9842C59.7131 9.17584 59.6362 8.36234 59.4465 7.57458C59.3516 7.23223 59.1412 6.93363 58.8513 6.72984C58.5614 6.52604 58.2101 6.42971 57.8573 6.45729C57.3754 6.46244 56.9089 6.59631 56.4937 6.8383C56.0425 7.09574 55.6427 7.43556 55.3146 7.83716L55.3146 14.0723C55.2736 14.4945 55.3761 14.9167 55.617 15.2668C55.9964 15.5449 56.4629 15.6633 56.9294 15.6067L56.9294 15.9001L51.7568 15.9001L51.7568 15.6221Z" fill="#111827"/>
<path d="M77.5944 6.33407C78.0074 6.74256 78.3286 7.2351 78.5364 7.77859C78.7442 8.32209 78.8338 8.90396 78.7991 9.48511L71.5862 9.48511C71.6631 11.246 72.0578 12.528 72.7807 13.3312C73.0922 13.7077 73.4825 14.0108 73.9236 14.219C74.3648 14.4272 74.8462 14.5355 75.3336 14.5361C76.0565 14.5618 76.7639 14.3404 77.3432 13.9079C77.9532 13.4188 78.4659 12.8164 78.8555 12.1316L79.2554 12.2706C78.9067 13.297 78.3075 14.2193 77.5124 14.9531C77.0991 15.3575 76.6097 15.6751 76.0727 15.8873C75.5358 16.0994 74.9621 16.202 74.3852 16.1888C73.7449 16.2184 73.1075 16.0858 72.5315 15.8033C71.9555 15.5208 71.4594 15.0974 71.0889 14.5721C70.3119 13.4876 69.9039 12.1803 69.9252 10.8444C69.8945 9.40788 70.3712 8.00227 71.2786 6.89013C72.1245 5.80889 73.4266 5.19104 74.7954 5.22708C75.8359 5.21825 76.8392 5.61507 77.5944 6.33407ZM72.1552 7.20421C71.8872 7.68398 71.71 8.20942 71.6323 8.75399L76.4204 8.75399C76.383 8.16572 76.2369 7.58956 75.9898 7.05489C75.807 6.72699 75.5347 6.45831 75.2051 6.28046C74.8754 6.10261 74.5021 6.02296 74.1289 6.05088C73.726 6.0415 73.3284 6.14427 72.98 6.34783C72.6317 6.55138 72.3462 6.84778 72.1552 7.20421Z" fill="#111827"/>
<path d="M79.8857 15.5395C80.3728 15.5395 80.8495 15.4108 81.2699 15.1688C81.5467 14.8393 81.6697 14.4068 81.6082 13.9795L81.6082 8.83584C81.639 8.29007 81.5672 7.74431 81.398 7.22428C81.275 6.91021 80.9674 6.71455 80.6342 6.7403C80.5317 6.7403 80.4343 6.75059 80.3317 6.77119C80.2087 6.79178 80.0754 6.81238 79.9421 6.84327L79.9421 6.46741L81.2648 5.99887C81.7159 5.83926 82.0286 5.72599 82.2029 5.65906C82.5771 5.51489 82.9667 5.35013 83.3666 5.16992C83.4179 5.16992 83.4537 5.19052 83.464 5.22656C83.4794 5.30379 83.4845 5.38617 83.4794 5.4634L83.4794 7.3324C83.8844 6.75059 84.356 6.21512 84.884 5.74658C85.2688 5.393 85.7674 5.19016 86.2887 5.17507C86.6373 5.15963 86.9756 5.28834 87.2319 5.52519C87.4729 5.75173 87.6062 6.06581 87.5959 6.39533C87.6062 6.68366 87.5036 6.96169 87.3191 7.18309C87.1448 7.38904 86.8885 7.50746 86.6219 7.50231C86.2938 7.48172 85.9811 7.3427 85.7555 7.10071C85.5761 6.89476 85.3352 6.75574 85.0686 6.69911C84.802 6.69911 84.479 6.91535 84.0946 7.3427C83.7422 7.6967 83.5354 8.17093 83.5153 8.67108L83.5153 13.8147C83.4589 14.3141 83.6229 14.8136 83.9715 15.1791C84.4175 15.4726 84.9507 15.6013 85.4838 15.5395L85.4838 15.9154L79.8857 15.9154L79.8857 15.5395Z" fill="#111827"/>
<path d="M87.9807 15.5962C88.519 15.6013 89.0521 15.4572 89.5135 15.1791C89.7237 14.9783 89.8314 14.4326 89.8314 13.5418L89.8314 8.10473C89.8468 7.75976 89.816 7.41479 89.7288 7.08012C89.6263 6.77635 89.329 6.58069 89.0111 6.61158C88.9291 6.61158 88.8471 6.61673 88.7651 6.63733C88.683 6.65277 88.4575 6.71456 88.0781 6.81753L88.0781 6.46227L88.5651 6.30266C89.8878 5.87016 90.8105 5.54579 91.3334 5.32439C91.4616 5.25746 91.6 5.21112 91.7436 5.18538C91.7589 5.24201 91.7641 5.29865 91.7641 5.35529L91.7641 13.5418C91.7641 14.4068 91.8666 14.9526 92.0768 15.174C92.492 15.4623 92.9842 15.6116 93.4917 15.5962L93.4917 15.9154L87.9756 15.9154L87.9807 15.5962ZM89.7852 0.35069C90.0057 0.118996 90.3081 -0.00972319 90.626 0.000574392C90.9387 -0.00457431 91.2412 0.118996 91.4616 0.345542C91.6872 0.566938 91.8153 0.870715 91.8051 1.18994C91.8102 1.50401 91.682 1.80779 91.4616 2.02404C91.2412 2.25058 90.9387 2.37415 90.626 2.369C90.3081 2.37415 90.0057 2.25058 89.7852 2.02404C89.5648 1.80264 89.4418 1.50401 89.4469 1.18994C89.4418 0.875864 89.5597 0.577235 89.7852 0.35069Z" fill="#111827"/>
<path d="M101.745 5.89644C102.035 6.05814 102.28 6.28954 102.459 6.56989C102.638 6.85025 102.745 7.17081 102.77 7.50285C102.77 7.76029 102.673 8.00743 102.509 8.20308C102.304 8.42963 102.006 8.5532 101.704 8.52745C101.445 8.52795 101.196 8.4305 101.007 8.25457C100.786 8.03832 100.632 7.76029 100.571 7.45651L100.432 6.91074C100.371 6.57092 100.191 6.26715 99.9197 6.05605C99.6224 5.88614 99.2789 5.79861 98.9303 5.8192C98.0639 5.8192 97.2488 6.24655 96.7464 6.95708C96.1149 7.83106 95.8001 8.89575 95.8544 9.97425C95.8442 11.0864 96.1876 12.1676 96.8387 13.0687C97.1311 13.5014 97.527 13.8536 97.99 14.0928C98.4531 14.3321 98.9685 14.4509 99.4891 14.4382C100.258 14.4434 101.007 14.1705 101.591 13.6608C102.042 13.2386 102.437 12.7649 102.77 12.2449L103.088 12.4405C102.739 13.2231 102.278 13.9542 101.724 14.6081C101.337 15.0801 100.852 15.4614 100.303 15.7255C99.7543 15.9897 99.1545 16.1302 98.5458 16.1373C97.3513 16.1322 96.2133 15.6224 95.4135 14.7369C94.4651 13.702 93.9781 12.3272 94.0499 10.9268C94.0191 9.43363 94.5523 7.98683 95.5366 6.86955C95.9973 6.32308 96.5739 5.88693 97.224 5.59296C97.8741 5.29899 98.5815 5.15464 99.2943 5.17046C100.166 5.13957 101.022 5.39701 101.745 5.89644Z" fill="#111827"/>
<path d="M106.333 10.8902C107.661 10.1436 109.056 9.52059 110.501 9.03146L110.501 8.06349C110.537 7.51257 110.46 6.96165 110.276 6.44678C110.019 5.93705 109.486 5.68476 108.676 5.68476C108.292 5.68476 107.912 5.78773 107.574 5.98339C107.256 6.143 107.051 6.46737 107.051 6.82778C107.056 6.98225 107.077 7.13671 107.108 7.29117C107.133 7.43019 107.154 7.56921 107.164 7.70822C107.2 8.05834 107.036 8.40331 106.744 8.59896C106.574 8.70193 106.374 8.75342 106.175 8.74827C105.877 8.76887 105.585 8.64015 105.39 8.4136C105.216 8.2025 105.118 7.93992 105.118 7.66703C105.155 7.33538 105.262 7.01532 105.431 6.72783C105.599 6.44034 105.827 6.19192 106.098 5.99883C106.918 5.36553 107.943 5.05146 108.974 5.12869C110.445 5.12869 111.439 5.60753 111.957 6.5652C112.275 7.28602 112.419 8.06864 112.378 8.8564L112.378 13.4285C112.362 13.7374 112.393 14.0412 112.47 14.3398C112.542 14.6179 112.798 14.8032 113.085 14.7826C113.234 14.7878 113.382 14.762 113.516 14.7002C113.721 14.587 113.921 14.4583 114.105 14.3141L114.105 14.9062C113.88 15.1842 113.618 15.4314 113.321 15.6373C112.941 15.9102 112.49 16.0595 112.029 16.0698C111.593 16.1059 111.173 15.9154 110.911 15.5704C110.676 15.2151 110.542 14.7981 110.532 14.3707C110.071 14.7878 109.579 15.1585 109.056 15.488C108.468 15.8674 107.79 16.0808 107.092 16.1059C106.456 16.111 105.852 15.8639 105.4 15.4159C105.165 15.1915 104.979 14.9195 104.855 14.6178C104.731 14.3161 104.673 13.9915 104.683 13.6653C104.714 12.5017 105.339 11.4514 106.333 10.8902ZM110.501 9.60297C109.748 9.83981 109.025 10.159 108.343 10.5606C107.251 11.2351 106.708 12.0074 106.708 12.8621C106.685 13.154 106.736 13.4468 106.855 13.714C106.974 13.9811 107.158 14.214 107.39 14.3913C107.677 14.6024 108.02 14.7157 108.379 14.7105C108.886 14.7054 109.384 14.5612 109.814 14.2883C110.224 14.0875 110.486 13.6756 110.501 13.2174L110.501 9.60297Z" fill="#111827"/>
<path d="M114.577 15.5967C114.987 15.5761 115.376 15.4371 115.704 15.19C115.976 14.7935 116.089 14.3147 116.027 13.841L116.027 8.04865C116.048 7.70368 116.002 7.35871 115.889 7.02919C115.704 6.72027 115.356 6.55036 115.002 6.60184C114.93 6.60184 114.864 6.60699 114.792 6.61214C114.72 6.62244 114.633 6.63274 114.525 6.64818L114.525 6.24658C114.833 6.1539 115.571 5.91706 116.73 5.5412L117.796 5.18593C117.847 5.18593 117.883 5.20653 117.893 5.24257C117.909 5.29406 117.914 5.35069 117.909 5.40218L117.909 7.08068C118.411 6.58125 118.955 6.13331 119.539 5.73685C120.082 5.37644 120.723 5.18593 121.374 5.18079C121.877 5.17564 122.369 5.33525 122.779 5.62358C123.594 6.20024 124.004 7.22999 124.004 8.71284L124.004 14.0367C123.968 14.4589 124.081 14.8811 124.332 15.2209C124.63 15.4938 125.024 15.6328 125.424 15.5967L125.424 15.916L120.575 15.916L120.575 15.5967C121 15.5761 121.405 15.4114 121.733 15.1333C122.01 14.6803 122.128 14.1499 122.061 13.6248L122.061 8.75403C122.082 8.19281 121.959 7.6316 121.702 7.13217C121.563 6.91007 121.364 6.73192 121.128 6.61811C120.892 6.50429 120.629 6.4594 120.37 6.48857C119.883 6.50402 119.411 6.66363 119.016 6.94681C118.662 7.2094 118.329 7.49773 118.022 7.8118L118.022 14.2014C117.97 14.603 118.104 15.0098 118.386 15.3033C118.729 15.5195 119.129 15.6225 119.534 15.607L119.534 15.9263L114.572 15.9263L114.577 15.5967Z" fill="#111827"/>
<path d="M12.6413 12.7694C13.2206 12.9547 13.8153 13.1041 14.4099 13.2173C14.6714 13.2173 14.9328 13.1401 15.1532 13.0011C15.3942 12.8466 15.5685 12.6046 15.6403 12.3214L16.2195 12.3214L16.4759 18.5617L15.8402 18.5617C15.548 17.4805 15.0558 16.461 14.3945 15.5652C13.8547 14.8697 13.1582 14.3129 12.3624 13.9406C11.5665 13.5682 10.694 13.3909 9.81663 13.4233C7.95573 13.3872 6.19224 14.2419 5.06955 15.7299C3.8392 17.2694 3.22403 19.3855 3.22403 22.0784C3.22403 24.5549 3.86996 26.5372 5.16182 28.0149C6.38191 29.4617 8.18642 30.2752 10.0729 30.234C11.4571 30.2443 12.8258 29.889 14.0306 29.2042C14.861 28.71 15.6249 28.1179 16.3118 27.4382L16.8245 27.9531C16.1818 28.7579 15.411 29.4503 14.5432 30.0023C13.0437 30.9816 11.2925 31.5005 9.50391 31.4954C6.53058 31.4954 4.17242 30.5429 2.4243 28.6327C0.795913 26.8289 -0.0715937 24.4605 0.00462742 22.0269C-0.0671423 19.5091 0.85049 17.0635 2.55759 15.215C4.36723 13.2791 6.91507 12.2288 9.55518 12.3266C10.601 12.3266 11.6365 12.481 12.6413 12.7694Z" fill="#111827"/>
<path d="M19.552 20.1736C20.1074 19.562 20.7883 19.0787 21.5476 18.7569C22.307 18.4352 23.1267 18.2826 23.9505 18.3097C25.6063 18.2582 27.2109 18.8967 28.3848 20.0757C28.9807 20.6971 29.4439 21.434 29.7463 22.2414C30.0486 23.0488 30.1837 23.9097 30.1432 24.7714C30.1721 26.4939 29.5659 28.1664 28.4412 29.4671C27.9058 30.1129 27.231 30.628 26.4681 30.9732C25.7052 31.3184 24.874 31.4848 24.0376 31.4597C22.3664 31.4854 20.7669 30.7903 19.6443 29.5443C18.4392 28.2431 17.7944 26.5167 17.85 24.7405C17.7987 23.0517 18.4139 21.4144 19.552 20.1736ZM21.7051 19.8235C20.8028 20.6473 20.3517 22.0683 20.3517 24.0866C20.3414 25.657 20.7157 27.2016 21.4436 28.5918C22.1716 29.982 23.1764 30.6822 24.4682 30.6822C24.948 30.6917 25.4208 30.566 25.8331 30.3194C26.2453 30.0728 26.5806 29.7151 26.8008 29.2869C27.3954 28.1593 27.6774 26.8979 27.621 25.621C27.6261 24.0866 27.2724 22.5677 26.5803 21.1982C25.8831 19.8132 24.8783 19.1232 23.5609 19.1232C22.8758 19.1094 22.2116 19.36 21.7051 19.8235Z" fill="#111827"/>
<path d="M30.6814 30.6564C31.1684 30.6358 31.6349 30.4659 32.0245 30.1724C32.2808 29.9304 32.409 29.395 32.409 28.566L32.409 21.6718C32.4346 21.2599 32.3782 20.848 32.245 20.4619C32.0296 20.0963 31.6144 19.8955 31.194 19.9521C31.112 19.9521 31.0249 19.9573 30.9428 19.9676C30.8557 19.9779 30.7532 19.9882 30.625 20.0088L30.625 19.5351C30.9941 19.427 31.8656 19.1438 33.2446 18.6907L34.516 18.2685C34.5775 18.2685 34.6185 18.2891 34.6287 18.3354C34.6441 18.3972 34.6492 18.4641 34.6492 18.5259L34.6492 20.5185C35.249 19.9264 35.895 19.3909 36.5922 18.9172C37.2416 18.4899 37.9997 18.2593 38.776 18.253C39.3758 18.2479 39.9602 18.4332 40.4472 18.7834C41.4161 19.4681 41.9032 20.6935 41.9032 22.4596L41.9031 28.7977C41.8566 29.3 41.9952 29.802 42.2928 30.2085C42.6465 30.5328 43.1181 30.6976 43.5949 30.6564L43.5949 31.0374L37.8328 31.0374L37.8328 30.6564C38.3401 30.6292 38.8245 30.4357 39.2118 30.1055C39.4732 29.8326 39.6014 29.2302 39.6014 28.3086L39.6014 22.5111C39.627 21.8417 39.4784 21.1724 39.1708 20.5751C39.0047 20.3112 38.7682 20.0993 38.4881 19.9637C38.2081 19.8281 37.8958 19.7741 37.5867 19.808C37.0074 19.8234 36.4486 20.0139 35.9719 20.3486C35.5515 20.6575 35.1568 21.0025 34.7877 21.3783L34.7877 28.9779C34.7261 29.4567 34.8851 29.9407 35.2183 30.2857C35.6284 30.5431 36.1 30.6667 36.5819 30.6461L36.5819 31.0271L30.6865 31.0271L30.6814 30.6564Z" fill="#111827"/>
<path d="M44.9018 26.7596L45.3478 26.7596C45.4811 27.5937 45.7682 28.397 46.1834 29.1332C46.4629 29.6149 46.8679 30.0108 47.3547 30.2785C47.8416 30.5461 48.392 30.6753 48.9466 30.6521C49.531 30.683 50.1051 30.4822 50.5409 30.0909C50.9356 29.7099 51.1458 29.1796 51.1253 28.6338C51.1202 28.2425 51.0023 27.8615 50.7869 27.532C50.4742 27.0995 50.0692 26.7493 49.5976 26.5022L48.0853 25.6321C47.1728 25.179 46.3423 24.5714 45.64 23.8248C45.1234 23.2331 44.8439 22.4698 44.8557 21.683C44.83 20.7304 45.2248 19.8139 45.9373 19.1858C46.6848 18.5222 47.6574 18.1721 48.6544 18.2075C49.1875 18.2178 49.7207 18.3105 50.2282 18.4804C50.546 18.5937 50.8638 18.6864 51.1919 18.7533C51.315 18.7636 51.4329 18.7379 51.5457 18.6864C51.6277 18.6297 51.6892 18.5576 51.7353 18.4701L52.0583 18.4701L52.1506 22.2545L51.7302 22.2545C51.6072 21.5336 51.3611 20.8386 51.0023 20.2053C50.7594 19.7797 50.406 19.4285 49.9798 19.1891C49.5536 18.9496 49.0707 18.8311 48.5826 18.846C48.0289 18.8151 47.4855 19.0313 47.0959 19.4278C46.7422 19.7934 46.5525 20.2876 46.5576 20.7974C46.5576 21.6315 47.1779 22.3729 48.4237 23.0216L50.2077 23.9845C52.1249 25.0348 53.0836 26.2551 53.0836 27.6504C53.1092 28.6595 52.6683 29.6275 51.8891 30.2711C51.0063 30.9806 49.8965 31.343 48.7671 31.2906C48.1468 31.2803 47.5317 31.1876 46.9319 31.0177C46.5371 30.8941 46.127 30.8066 45.7169 30.7448C45.6093 30.7448 45.5067 30.786 45.435 30.8581C45.3529 30.9353 45.2914 31.0331 45.2453 31.1361L44.8915 31.1361L44.9018 26.7596Z" fill="#111827"/>
<path d="M63.3469 19.6279C63.8388 20.1144 64.2211 20.7012 64.4678 21.3487C64.7145 21.9962 64.82 22.6894 64.7772 23.3814L56.2006 23.3814C56.2878 25.4769 56.7645 27.001 57.6206 27.9586C57.9926 28.406 58.4574 28.7664 58.9825 29.0145C59.5076 29.2627 60.0803 29.3926 60.6606 29.3951C61.5167 29.4209 62.3626 29.1583 63.0495 28.6486C63.7724 28.0616 64.3824 27.3459 64.8489 26.5376L65.3206 26.6972C64.9053 27.9174 64.1927 29.0141 63.2444 29.8894C62.7521 30.37 62.1695 30.7474 61.5305 30.9993C60.8915 31.2512 60.2089 31.3728 59.5226 31.3568C58.7598 31.392 58.0005 31.2341 57.3143 30.8976C56.6282 30.5611 56.0372 30.0569 55.5957 29.4312C54.6729 28.1388 54.1859 26.5839 54.2116 24.9929C54.1757 23.2836 54.7447 21.6154 55.8213 20.2818C56.826 18.9946 58.3794 18.2584 60.0096 18.2996C61.2502 18.2944 62.4446 18.7681 63.3469 19.6279ZM56.8722 20.668C56.5543 21.2395 56.3442 21.8676 56.2519 22.5112L61.9525 22.5112C61.9084 21.8106 61.7346 21.1244 61.4398 20.4878C61.2231 20.0968 60.8992 19.7765 60.5067 19.5648C60.1142 19.3531 59.6694 19.2589 59.2252 19.2933C58.2461 19.2675 57.3336 19.7978 56.8722 20.668Z" fill="#111827"/>
<path d="M65.4795 30.5847C66.0588 30.5847 66.6278 30.4354 67.1302 30.1419C67.4019 29.9205 67.5352 29.4468 67.5352 28.726L67.5352 22.6093C67.5711 21.9605 67.489 21.3066 67.284 20.6888C67.2116 20.5085 67.0845 20.3557 66.9206 20.2522C66.7568 20.1486 66.5646 20.0996 66.3715 20.1121C66.2536 20.1173 66.1305 20.1276 66.0126 20.1481C65.864 20.1687 65.7102 20.1996 65.5461 20.2357L65.5461 19.7877L67.1199 19.2317C67.6582 19.0412 68.0325 18.9073 68.2375 18.8249C68.6886 18.655 69.15 18.4594 69.6268 18.2431C69.6883 18.2431 69.7293 18.2688 69.7395 18.31C69.7549 18.4027 69.7652 18.5005 69.7601 18.5932L69.7601 20.8175C70.2368 20.1224 70.8007 19.4891 71.4313 18.933C71.8875 18.5108 72.4822 18.2688 73.1076 18.2534C73.5229 18.238 73.9278 18.3821 74.2303 18.6653C74.5174 18.933 74.6763 19.3089 74.666 19.7054C74.6763 20.0503 74.5584 20.3798 74.3328 20.6424C74.1278 20.8896 73.8202 21.0286 73.5023 21.0234C73.1127 21.0028 72.7436 20.8329 72.4668 20.5498C72.2534 20.3073 71.9673 20.1411 71.6517 20.0761C71.3339 20.0761 70.9494 20.3335 70.488 20.8432C70.0676 21.2654 69.8216 21.8266 69.8011 22.4239L69.8011 28.5458C69.7344 29.1379 69.9344 29.7352 70.3393 30.1677C70.8725 30.5178 71.5082 30.6671 72.1387 30.595L72.1387 31.0429L65.4795 31.0429L65.4795 30.5847Z" fill="#111827"/>
<path d="M80.7411 18.4283L80.7411 18.8505C80.4028 18.8762 80.0696 18.9483 79.7466 19.0667C79.5364 19.1851 79.4236 19.422 79.4544 19.664C79.4544 19.803 79.4749 19.942 79.5159 20.0759C79.5569 20.2046 79.6236 20.4002 79.7261 20.6525L82.561 27.4695L84.9653 21.4506C85.0832 21.152 85.1909 20.8379 85.2985 20.5135C85.3857 20.2715 85.4369 20.0244 85.4523 19.7669C85.4626 19.4323 85.2626 19.1285 84.9551 19.0049C84.6936 18.9123 84.4219 18.8556 84.1451 18.8402L84.1451 18.418L87.9797 18.418L87.9797 18.8402C87.6157 18.8402 87.2671 18.9998 87.0261 19.283C86.6827 19.8442 86.4007 20.4466 86.1803 21.0696L82.2791 30.842C82.2329 30.9655 82.1714 31.084 82.1048 31.1972C82.0638 31.259 81.992 31.295 81.9151 31.295C81.8667 31.2913 81.82 31.2752 81.7796 31.2481C81.7392 31.2211 81.7064 31.184 81.6844 31.1406C81.6075 31.017 81.5409 30.8883 81.4793 30.7544L77.3474 20.8224C77.134 20.1942 76.7674 19.6296 76.2811 19.18C75.9838 18.9895 75.6455 18.8814 75.2969 18.8556L75.2969 18.4334L80.7411 18.4283Z" fill="#111827"/>
<path d="M90.3422 25.0499C91.9263 24.1592 93.5821 23.4178 95.2995 22.8359L95.2995 21.6826C95.3405 21.0287 95.2482 20.3748 95.0278 19.757C94.7202 19.1494 94.0845 18.8457 93.1208 18.8457C92.6594 18.8457 92.2083 18.9692 91.8084 19.2009C91.429 19.3914 91.1881 19.7776 91.1881 20.2049C91.1984 20.3903 91.2189 20.5756 91.2547 20.7558C91.2855 20.9206 91.3111 21.0854 91.3214 21.2501C91.3624 21.6672 91.1727 22.0739 90.8241 22.3108C90.6191 22.4343 90.3833 22.491 90.1474 22.4858C89.9716 22.4956 89.796 22.4644 89.6341 22.3947C89.4723 22.3251 89.3287 22.2188 89.2144 22.0842C89.0042 21.8356 88.8897 21.5196 88.8915 21.1935C88.8915 20.5602 89.2811 19.896 90.0603 19.2061C90.8395 18.5161 91.9827 18.166 93.4847 18.166C95.2329 18.166 96.4171 18.7375 97.0374 19.8754C97.4167 20.7301 97.5859 21.6672 97.5346 22.6043L97.5346 28.0465C97.5141 28.4121 97.5551 28.7776 97.6423 29.1329C97.7294 29.4624 98.0319 29.6838 98.3702 29.6632C98.5445 29.6684 98.7188 29.6375 98.8829 29.5654C99.1289 29.4315 99.3648 29.2771 99.5852 29.102L99.5852 29.8074C99.3186 30.142 99.0059 30.4355 98.6522 30.6775C98.2062 31.0019 97.6679 31.1821 97.1143 31.1924C96.5965 31.2387 96.0941 31.0122 95.7814 30.5951C95.4994 30.1729 95.3405 29.6787 95.3303 29.1689C94.7817 29.6632 94.1973 30.106 93.5719 30.4973C92.8735 30.9503 92.0652 31.2031 91.2342 31.2284C90.8612 31.2323 90.4912 31.162 90.1454 31.0215C89.7996 30.881 89.4849 30.6731 89.2196 30.4098C88.9396 30.1419 88.719 29.8178 88.5724 29.4584C88.4257 29.0991 88.3563 28.7127 88.3686 28.3245C88.384 27.0219 89.035 25.9304 90.3422 25.0499ZM95.2995 23.5156C94.4024 23.7988 93.5411 24.1798 92.7312 24.6535C91.4342 25.4567 90.7831 26.3732 90.7831 27.3926C90.7267 28.098 91.0343 28.7828 91.5931 29.2101C91.9366 29.4624 92.3467 29.5911 92.767 29.5911C93.372 29.586 93.9666 29.4161 94.4741 29.0917C94.9612 28.8497 95.2739 28.3606 95.2893 27.8148L95.2995 23.5156Z" fill="#111827"/>
<path d="M106.025 18.5271L106.025 19.5054L103.266 19.5054L103.241 27.3212C103.22 27.8464 103.282 28.3716 103.415 28.8813C103.487 29.161 103.652 29.4072 103.884 29.5781C104.116 29.7489 104.399 29.8338 104.687 29.8184C104.984 29.8235 105.276 29.7463 105.532 29.5867C105.835 29.3756 106.107 29.1284 106.347 28.8555L106.701 29.1542L106.404 29.5609C106.019 30.1192 105.51 30.5794 104.917 30.9047C104.451 31.1519 103.933 31.2858 103.405 31.3012C102.446 31.3681 101.559 30.7863 101.242 29.875C101.006 29.1851 100.903 28.4591 100.929 27.7331L100.929 19.5054L99.4575 19.5054C99.4189 19.4841 99.3842 19.4562 99.355 19.423C99.3311 19.3921 99.3184 19.354 99.3191 19.3149C99.314 19.2376 99.3345 19.1656 99.3806 19.1038C99.5037 18.9802 99.6318 18.8669 99.7651 18.7588C100.245 18.3767 100.695 17.9566 101.108 17.5025C101.38 17.1833 102.026 16.3337 103.046 14.959C103.118 14.9487 103.19 14.959 103.256 14.9848C103.277 15.0054 103.292 15.0723 103.292 15.1907L103.292 18.5271L106.025 18.5271Z" fill="#111827"/>
<path d="M106.962 30.6509C107.926 30.5634 108.536 30.3935 108.787 30.1566C109.038 29.9198 109.167 29.2659 109.167 28.2104L109.167 21.7384C109.187 21.3265 109.146 20.9146 109.043 20.5181C108.92 20.1577 108.572 19.926 108.193 19.9621C108.095 19.9621 107.998 19.9724 107.9 19.9878C107.808 20.0084 107.531 20.0805 107.085 20.204L107.085 19.7818L107.664 19.5913C109.238 19.0765 110.34 18.6852 110.961 18.4226C111.115 18.3453 111.279 18.2887 111.448 18.2578C111.468 18.3247 111.473 18.3917 111.473 18.4638L111.473 28.2052C111.473 29.235 111.596 29.8837 111.843 30.1463C112.089 30.4089 112.653 30.5737 113.524 30.6457L113.524 31.0268L106.957 31.0268L106.957 30.6509L106.962 30.6509Z" fill="#111827"/>
<path d="M118.805 18.4292L118.805 18.8514C118.467 18.8772 118.133 18.9493 117.81 19.0677C117.6 19.1861 117.487 19.423 117.518 19.6649C117.518 19.804 117.539 19.943 117.58 20.0768C117.621 20.2056 117.687 20.4012 117.79 20.6535L120.625 27.4705L123.029 21.4516C123.147 21.1529 123.255 20.8389 123.362 20.5145C123.449 20.2725 123.501 20.0254 123.516 19.7679C123.526 19.4333 123.326 19.1295 123.019 19.0059C122.757 18.9132 122.486 18.8566 122.209 18.8411L122.209 18.4189L126.043 18.4189L126.043 18.8411C125.679 18.8411 125.331 19.0008 125.09 19.2839C124.746 19.8452 124.464 20.4476 124.244 21.0706L120.338 30.8429C120.292 30.9665 120.23 31.0849 120.163 31.1982C120.122 31.26 120.051 31.296 119.974 31.296C119.925 31.2923 119.879 31.2762 119.838 31.2491C119.798 31.222 119.765 31.185 119.743 31.1416C119.666 31.018 119.599 30.8893 119.538 30.7554L115.406 20.8234C115.193 20.1952 114.826 19.6306 114.34 19.181C114.042 18.9905 113.704 18.8823 113.355 18.8566L113.355 18.4344L118.805 18.4292Z" fill="#111827"/>
<path d="M134.85 19.6279C135.342 20.1143 135.724 20.7011 135.971 21.3486C136.217 21.9962 136.323 22.6893 136.28 23.3813L127.704 23.3813C127.791 25.4769 128.267 27.0009 129.124 27.9586C129.496 28.406 129.96 28.7663 130.485 29.0145C131.01 29.2626 131.583 29.3925 132.164 29.3951C133.021 29.4239 133.863 29.1608 134.552 28.6485C135.275 28.0616 135.885 27.3459 136.352 26.5375L136.823 26.6971C136.408 27.9174 135.696 29.0141 134.747 29.8894C134.255 30.37 133.672 30.7473 133.033 30.9992C132.394 31.2512 131.712 31.3727 131.025 31.3568C130.263 31.3919 129.503 31.234 128.817 30.8975C128.131 30.5611 127.54 30.0568 127.099 29.4311C126.176 28.1388 125.689 26.5839 125.714 24.9929C125.679 23.2835 126.248 21.6101 127.324 20.2818C128.329 18.9946 129.882 18.2583 131.512 18.2995C132.753 18.2943 133.953 18.768 134.85 19.6279ZM128.38 20.6679C128.062 21.2394 127.852 21.8676 127.76 22.5112L133.461 22.5112C133.414 21.811 133.24 21.1262 132.948 20.4877C132.73 20.0976 132.406 19.7779 132.014 19.5663C131.622 19.3547 131.177 19.26 130.733 19.2932C129.749 19.2675 128.842 19.7978 128.38 20.6679Z" fill="#111827"/>
</svg>
